<?xml version="1.0" encoding="UTF-8"?><svg id="Layer_1" xmlns="http://www.w3.org/2000/svg" width="500" height="500" viewBox="0 0 500 500"><defs><style>.cls-1{fill:#67421e;}.cls-2{fill:#8ac53f;}.cls-3{fill:#231f20;}.cls-4{fill:#f16c66;}.cls-5{fill:#529943;}.cls-6{fill:#d51f26;}.cls-7{fill:#ed342e;}</style></defs><path class="cls-7" d="M206.28,179.14c-31.85-11.93-105.92-27.77-110.42,80.66-.21,5.01.16,10.03,1.11,14.95,5.82,30.2,32.8,140.82,114.18,130.59,6.77-.85,13.62-.73,20.35.47,17.33,3.1,57.55.12,97.28-75.72,52.62-100.46-20.08-148.86-20.08-148.86,0,0-30.51-22.85-74.12-3.16-8.93,4.03-19.1,4.5-28.28,1.06Z"/><path class="cls-3" d="M240.29,408.08c-3.42,0-6.46-.32-9.06-.79-6.46-1.15-13.15-1.31-19.9-.46-35.33,4.44-64.56-12.67-86.91-50.86-17.95-30.66-26.21-66.81-28.93-80.93-.97-5.02-1.35-10.17-1.14-15.3,1.66-39.89,12.89-67,33.39-80.59,26.02-17.25,60.7-8.29,79.06-1.41,8.76,3.28,18.4,2.92,27.14-1.02,22.92-10.35,42.23-8.92,54.4-5.89,13.22,3.29,20.92,8.98,21.25,9.22.69.46,18.59,12.57,30.23,37.32,19.44,41.32,5.44,84.49-9.72,113.44-17.42,33.25-36.8,56.15-57.62,68.07-12.47,7.14-23.53,9.22-32.19,9.22ZM219.85,403.29c4.02,0,8,.35,11.9,1.05,8.73,1.56,22.62,1.42,39.23-8.08,20.31-11.62,39.31-34.12,56.45-66.85,14.83-28.3,28.55-70.47,9.73-110.63-11.27-24.05-29.13-36.16-29.31-36.28-.37-.27-30.44-22.11-72.68-3.04-9.46,4.27-19.91,4.66-29.43,1.1h0c-17.82-6.68-51.44-15.42-76.35,1.1-19.65,13.03-30.44,39.34-32.05,78.22-.2,4.9.16,9.82,1.08,14.61,2.69,13.97,10.87,49.72,28.58,79.98,21.69,37.06,49.92,53.68,83.95,49.4,2.98-.37,5.95-.56,8.89-.56Z"/><path class="cls-2" d="M219.42,186.2s-16.41-96.9,89.16-92.65c0,0,10.04,94.75-89.16,92.65Z"/><path class="cls-3" d="M222.65,187.74c-1.08,0-2.16-.01-3.26-.04l-1.24-.03-.21-1.22c-.07-.42-6.78-42.02,17.6-69.72,15.58-17.7,40.16-26,73.09-24.67l1.29.05.14,1.29c.04.42,4.12,41.97-21.28,69.61-15.09,16.42-37.33,24.73-66.14,24.73ZM220.73,184.72c28.88.38,51.01-7.61,65.83-23.73,22.01-23.93,21.07-58.87,20.62-65.99-31.29-1.01-54.63,6.95-69.37,23.69-21.13,24-17.96,59.06-17.08,66.03Z"/><path class="cls-5" d="M219.06,184.48s30.07-66.63,88.25-89.41c0,0,8.86,92.32-88.25,89.41Z"/><path class="cls-1" d="M214.74,190.76s4.67,2,8.9,0c3.39-1.6-2.23-24.5-4.59-33.54-.67-2.58-1.65-5.05-2.93-7.39-5.4-9.87-21.72-36.48-45.44-46.54,0,0-14.69.45-12.46,18.25,0,0,59.64,12.91,56.53,69.21Z"/><path class="cls-3" d="M219.46,193.15c-2.9,0-5.16-.95-5.31-1.01l-.96-.41.06-1.05c1.26-22.77-7.62-41.06-26.38-54.36-14.11-10-28.82-13.28-28.97-13.31l-1.04-.23-.13-1.05c-.79-6.31.35-11.3,3.39-14.85,4.14-4.84,10.26-5.08,10.52-5.09h.33s.3.12.3.12c23.9,10.14,40.25,36.39,46.17,47.2,1.33,2.43,2.36,5.03,3.07,7.73,8.63,32.97,5.24,34.58,3.79,35.27-1.64.78-3.32,1.03-4.83,1.03ZM216.3,189.7c1.41.39,4.12.88,6.6-.24,1.04-1.67-.16-12.26-5.29-31.85-.65-2.47-1.59-4.84-2.8-7.05-17.08-31.19-36.48-42.31-44.38-45.74-1.14.11-5.25.75-8.05,4.04-2.29,2.69-3.22,6.55-2.78,11.47,3.71.94,16.37,4.61,28.92,13.48,13.38,9.46,28.97,26.8,27.78,55.88Z"/><path class="cls-4" d="M184.91,194.83c-5.86-5.5-13.58-8.62-21.61-8.59-14.25.05-37.04,6.48-46.09,44.46-13.61,57.09,13.31,78.98,13.31,78.98,0,0,20.41,13.61,18.04-11.83s11.24-52.36,11.24-52.36c0,0,9.17-21.3,26.03-31.65,9.61-5.9,4.9-13.53-.93-19.01Z"/><path class="cls-6" d="M213.39,182.5s-5.56-.88-11.69-3.57c0,0-10.97,9.48.35,20.21s27.6,1.55,27.6,1.55c0,0,2.64-2.62,3.93-6.42s1.91-7.12,1.31-7.08c-6.45.47-6.85.5-8.69.45,0,0-.14,1.82-.82,3.44s-8.84,3.06-12.11.46l.12-9.06Z"/><path class="cls-6" d="M332.17,209.78s-12.99,169.11-164,187.02c0,0,15.89,11.78,51.32,6.94,0,0,4.74-.64,15.96,1.54,11.22,2.17,32.46-5.82,41.87-12.99,8.8-6.7,34.42-29.49,49.37-61.14,15.23-32.24,19.86-52,19.86-69.26,0,0,1.34-28.84-14.38-52.1Z"/></svg>