<?xml version="1.0" encoding="UTF-8"?><svg id="Layer_1" xmlns="http://www.w3.org/2000/svg" width="500" height="500" viewBox="0 0 500 500"><defs><style>.cls-1{fill:#7f5c24;}.cls-2{fill:#e7c71c;}.cls-3{fill:#231f20;}.cls-4{fill:#fff28d;}.cls-5{fill:#81581a;}.cls-6{fill:#ba951a;}.cls-7{fill:#e4b522;}.cls-8{fill:#e4b520;}.cls-9{fill:#fff38f;}</style></defs><g id="banana"><path class="cls-7" d="M288.14,237.63s36.67,34.36,103.46,28.18c0,0,29.72,1.93,55.59-16.99,0,0-22,57.52-121.99,47.1-99.98-10.42-37.06-58.29-37.06-58.29Z"/><path class="cls-3" d="M348.26,298.87c-7.23,0-14.97-.39-23.25-1.25-34.43-3.59-53.76-12.12-57.47-25.34-4.82-17.2,18.56-35.23,19.56-35.99l1.14-.87,1.05.98c.36.34,36.96,33.75,102.14,27.73h.13s.13,0,.13,0c.29.02,29.44,1.65,54.48-16.66l4.65-3.4-2.06,5.38c-.23.61-5.89,15-24.09,28.22-14.02,10.19-38.06,21.21-76.42,21.21ZM288.09,239.85c-4.44,3.69-20.93,18.44-17.27,31.5,3.25,11.58,22.11,19.5,54.55,22.88,28.13,2.93,67.81,1.98,97.12-19.18,10.55-7.62,16.76-15.77,20.04-21.06-23.85,14.65-48.58,13.66-50.91,13.52-34.8,3.19-61.34-4.72-77.49-11.93-14.32-6.39-23.08-13.23-26.04-15.74Z"/><path class="cls-7" d="M189.15,243.73s-33.75,28.6-89.52,26.31c0,0-31.46,1.43-46.05-16.59,0,0-12.3,33.18,46.62,47.19,0,0,20.59,8.29,67.5,2,46.9-6.29,21.45-58.92,21.45-58.92Z"/><path class="cls-3" d="M134.71,306.72c-22.64,0-33.61-3.91-35.01-4.45-23.31-5.56-38.54-14.75-45.25-27.3-6.21-11.62-2.61-21.68-2.45-22.1l1.04-2.8,1.88,2.32c13.87,17.13,44.34,15.97,44.65,15.96h.07s.07,0,.07,0c54.47,2.23,88.02-25.63,88.35-25.91l1.67-1.42.96,1.97c.54,1.12,13.16,27.66,3.38,45.85-4.61,8.57-13.4,13.78-26.13,15.49-13.06,1.75-24.09,2.39-33.22,2.39ZM54.51,257.02c-.52,3.51-.64,9.7,2.97,16.41,6.27,11.64,20.78,20.24,43.12,25.55l.24.08c.2.08,20.86,8.04,66.64,1.89,11.59-1.55,19.52-6.17,23.59-13.73,7.54-14,.06-34.5-2.59-40.83-7.73,5.74-40.21,27.31-88.84,25.34-2.03.08-29.75.9-45.13-14.71Z"/><path class="cls-9" d="M93.57,298.46s-43.86-15.41-38.85-73.44c0,0-41.86,54.26,38.85,73.44Z"/><path class="cls-3" d="M93.18,300.11c-27.08-6.43-43.58-17.52-49.04-32.95-3.11-8.78-2.49-19.05,1.79-29.68,3.2-7.95,7.27-13.27,7.44-13.5l3.54-4.59-.5,5.77c-2.03,23.49,3.68,42.69,16.98,57.05,9.93,10.73,20.63,14.6,20.74,14.64l-.96,3.26ZM52.66,231.39c-4.15,7.36-10.07,21.25-5.31,34.65,4.08,11.51,15.07,20.46,32.75,26.72-2.89-2.14-6-4.81-9.08-8.11-8.96-9.63-19.04-26.48-18.36-53.26Z"/><path class="cls-4" d="M338.04,295.05s65.45,7.6,103.9-35.88c0,0-17.97,48.75-94.09,45.05-76.12-3.7-9.81-9.17-9.81-9.17Z"/><path class="cls-3" d="M355.84,306.12c-2.62,0-5.31-.06-8.08-.2-38.12-1.85-38.16-3.9-38.19-6.07-.03-1.55-.07-4.15,28.33-6.5h.17s.17,0,.17,0c.64.08,65.03,6.98,102.43-35.31l6-6.78-3.13,8.5c-.19.51-4.81,12.75-19,24.63-12.11,10.13-33.63,21.73-68.68,21.73ZM315.31,299.75c3.79.75,12.54,1.79,32.62,2.77,21.33,1.03,51.54-1.7,74.26-20.61,5.25-4.37,9.15-8.83,11.96-12.67-37.95,32.73-92.57,27.87-96.12,27.51-8.49.71-18.06,1.91-22.71,3Z"/><path class="cls-9" d="M455.03,351.9s-5.4-26.48-95.38-16.48c-89.97,10-117.26-70.79-117.26-70.79,0,0,5.79,45.2,24.18,65.87,1.57,1.77,0,0,1.9,1.91,5.76,5.79,23.41,18.66,61.73,19.5,0,0,13.27.37,66.47-3.24,53.2-3.61,58.36,3.24,58.36,3.24Z"/><path class="cls-3" d="M459.21,363.89l-5.51-10.9c-.86-.67-9.2-5.87-56.92-2.63-52.67,3.58-66.08,3.26-66.63,3.25-39.66-.87-57.19-14.27-62.89-20-.41-.41-.63-.63-.76-.75-.22-.12-.4-.33-1.2-1.23-7.8-8.77-14.31-22.69-19.35-41.37-3.73-13.83-5.22-25.3-5.24-25.41l3.3-.76c.07.2,6.96,20.16,24.6,38.61,23.58,24.67,54.15,35.11,90.86,31.03,90.48-10.06,96.99,16.69,97.23,17.83l2.51,12.33ZM268.46,330.06c.23.17.55.48,1.22,1.15,16.68,16.76,50.58,18.78,60.57,19,.14,0,13.9.32,66.31-3.24,32.27-2.19,47.21-.6,54.11,1.21-6.3-6.61-26.72-18.19-90.82-11.06-47.17,5.24-77.04-14.6-93.79-32.16-9.26-9.71-15.59-19.67-19.59-27.2,3.15,14.85,9.7,38.49,21.38,51.62.33.37.51.57.61.69Z"/><path class="cls-9" d="M149.79,370.87s87.76-12.09,81.89-99.16l-81.89,99.16Z"/><path class="cls-3" d="M145.7,373.15l87.38-105.82.29,4.26c3.09,45.8-19.78,70.83-39.5,83.77-21.28,13.96-42.94,17.07-43.85,17.19l-4.32.6ZM230.2,276.16l-76.1,92.15c7.47-1.65,23.01-6,38-15.86,26.39-17.35,39.19-43,38.1-76.29Z"/><path class="cls-6" d="M304.52,251.46s6.69,35.89,35.61,42.08c0,0,21.8.57,36.68-2.47,0,0-40.55-1.9-47.65-29.34,0,0-17.57-6.09-24.64-10.27Z"/><path class="cls-6" d="M184.49,247.12s-2.87,45.01-30.94,55.18c0,0-29.66,2.19-45.19-1.76,0,0,34.96,11.2,52.79-38.81,0,0,14.65-5.15,23.33-14.61Z"/><path class="cls-8" d="M46.63,385.12s-.08.05-.08,0c-.28-3.56-1.93-40.98,51.76-52.05,47.59-9.81,67.02-45.3,71.93-56.13.87-1.92,1.88-3.76,3-5.55,3.59-5.74,11.68-22.42,11.68-56.33,0-43.6,29.65-59.87,29.65-59.87,0,0,22.67-16.86,48.25-18.6,25.58-1.74,30.81-34.3,30.81-34.3l29.07,15.7s-16.86,18.02-20.93,31.97c-4.07,13.95-1.16,26.16-1.16,26.16,0,0,4.07,30.23,1.74,43.6-1.49,8.54-.12,22.15,1.05,30.86.78,5.8,2.98,11.3,6.38,16.07,6.24,8.75,17.55,22.34,30.35,26.9,0,0,20.35,11.63,67.43,13.95,47.09,2.33,51.74,50.57,51.74,50.57,0,0-13.03-15.94-37.9-16.27-24.87-.33-97.84,1.66-97.84,1.66,0,0-33.83,3.65-62.35-30.84-22.89-27.68-23.14-58.77-22.34-69.98.2-2.76.45-4.32.45-4.32,0,0-4.97,58.37-26.53,81.92,0,0-19.24,27.53-58.04,48.75,0,0-18.12,10.04-62.68,7.63-40.38-2.19-44.93,6.79-45.43,8.49Z"/><path class="cls-3" d="M47.84,386.95l-2.83-.26-.16-1.42c-.34-4.34-1.74-42.55,53.11-53.86,46.82-9.65,65.97-44.67,70.72-55.17.86-1.89,1.88-3.77,3.11-5.75,3.43-5.48,11.42-21.86,11.42-55.42,0-42.71,28.36-60.1,30.41-61.3,1.75-1.29,23.8-17.15,49.06-18.87,23.91-1.63,29.2-32.56,29.25-32.87l.38-2.36,33.11,17.88-1.5,1.61c-.17.18-16.63,17.89-20.54,31.29-3.89,13.32-1.17,25.17-1.14,25.29l.03.17c.17,1.25,4.08,30.64,1.73,44.12-1.49,8.55.03,22.68,1.06,30.34.74,5.47,2.84,10.76,6.08,15.31,5.62,7.89,16.94,21.79,29.54,26.29l.27.12c.2.11,20.66,11.46,66.67,13.73,48,2.37,53.3,51.61,53.34,52.11l.54,5.58-3.54-4.34c-.13-.15-12.88-15.33-36.61-15.65-24.24-.32-95.17,1.59-97.71,1.66-2.22.23-35.37,2.89-63.77-31.46-14.88-18-20.38-37.34-22.18-52.06-3.57,19.14-10.59,45.38-23.61,59.68-1.32,1.83-21,28.63-58.55,49.17-.75.42-19.06,10.25-63.59,7.83-40.47-2.19-43.6,6.89-43.71,7.27v.03s-.42,1.33-.42,1.33ZM294.81,104.87c-1.83,7.67-9.39,31.88-31.88,33.42-24.76,1.69-47.13,18.1-47.35,18.27l-.2.13c-.29.16-28.76,16.38-28.76,58.38,0,34.45-8.35,51.5-11.94,57.23-1.15,1.84-2.1,3.59-2.9,5.35-4.92,10.87-24.74,47.12-73.13,57.1-43.18,8.9-49.62,34.9-50.39,45.76,4.85-3.51,16.42-7.07,43.9-5.57,43.41,2.35,61.59-7.32,61.77-7.42,37.97-20.77,57.28-47.97,57.47-48.24l.14-.17c17.63-19.25,24.04-63.07,25.65-76.75.2-2.7.45-4.23.46-4.3l3.37.42c-.03.37-.17,1.98-.47,4.55-.8,11.87-.17,41.74,21.98,68.51,27.56,33.33,60.53,30.27,60.86,30.24h.13c.73-.03,73.28-1.99,97.91-1.67,17.77.24,29.6,8.1,35.29,13.02-1.02-4.58-3.09-11.64-7.16-18.72-9.05-15.79-23.21-24.27-42.08-25.2-45.49-2.25-66.05-12.99-68.05-14.1-12.74-4.61-23.9-17.47-31.03-27.47-3.56-4.99-5.87-10.81-6.68-16.82-1.3-9.6-2.53-22.83-1.04-31.38,2.2-12.63-1.52-41.29-1.74-43-.28-1.24-2.81-13.19,1.2-26.94,3.46-11.87,15.58-26.23,19.84-31.03l-25.16-13.59Z"/><path class="cls-1" d="M294.45,100.48s2.71,11.53,9.5,14.27c0,0,11.54,2.56,20.13,1.1,0,0,.9-7.68-9.95-13.36,0,0-8.37-5.67-19.68-2.01Z"/><path class="cls-3" d="M318.05,118c-7.18,0-14.09-1.51-14.46-1.59l-.27-.08c-7.51-3.04-10.4-14.95-10.52-15.46l-.36-1.52,1.49-.48c11.47-3.71,20.05,1.5,21.07,2.16,11.68,6.14,10.82,14.66,10.77,15.02l-.15,1.26-1.25.21c-2.02.34-4.19.48-6.32.48ZM304.46,113.13c1.24.26,10.42,2.1,17.87,1.26-.31-2.16-1.86-6.66-8.99-10.38l-.17-.1c-.3-.2-7.11-4.65-16.63-2.26.96,3.03,3.48,9.58,7.91,11.48Z"/><path class="cls-6" d="M240.81,240.34s-4.89,34.85,17.81,66.52c0,0,16.58,22.92,35.2,29.22,0,0,11.3,4.77,17.4,5.16,0,0,9.14,1.4,11.87.75l24.01-.61,37.85-.74,19.64-.31,12.83.07s10.56-.09,15.09,1.21c0,0,7.71,1.34,11.81,3.68s-17.58-16.2-67.56-13.28c-49.98,2.93-66.47-.35-91.98-15.77,0,0-33.33-17.83-43.96-75.89Z"/><path class="cls-3" d="M304.16,114.18c-.45,11.85-14.66,27.66-22.59,36.11,6.5-8.11,12.89-16.74,16.96-26.34,1.15-2.91,2.37-6.17,2.27-9.32,0,0,3.37-.45,3.37-.45h0Z"/><line class="cls-2" x1="239.29" y1="238.35" x2="242.32" y2="214.61"/><polygon class="cls-3" points="237.61 238.14 242.32 214.61 240.98 238.57 237.61 238.14 237.61 238.14"/><path class="cls-2" d="M246.25,197.28s5.73-28.67,26.02-39.26"/><path class="cls-3" d="M246.25,197.28c2.11-15.73,10.78-32.83,26.02-39.26-13.44,9.24-20.71,24.29-26.02,39.26h0Z"/><path class="cls-3" d="M293.91,335.94c4.49-1.26,9.02-2.63,13.35-4.37,1.53-.66,3.2-1.3,4.43-2.38.11-.11.19-.21.25-.32.31-1.59,1.27-2.99,2.21-4.2.74-.94,1.54-1.82,2.38-2.66-1.4,1.87-2.77,3.91-3.37,6.06-.15.48-.05.94-.27,1.4-1.12,1.79-3.15,2.66-4.86,3.7-4.24,2.28-8.59,4.16-13.04,5.98,0,0-1.07-3.22-1.07-3.22h0Z"/><path class="cls-2" d="M309.31,322.02s1.82-6.35,6.5-7.65"/><path class="cls-3" d="M309.31,322.02c.26-3.46,2.78-7.41,6.5-7.65-3.06,1.8-4.65,4.69-6.5,7.65h0Z"/><path class="cls-2" d="M136.02,318.45s9.63,4.37,11.75,3.92c2.81-.61,1.45.56,4.63,1.92"/><path class="cls-3" d="M136.49,317.42c2.59,1.35,5.26,2.66,7.97,3.73,1.35.52,2.68,1.04,4.13.76.38,0,.86,0,1.23.28.35.27.54.58.8.83.5.52,1.13.92,1.79,1.26-.7-.24-1.39-.56-2-1.03-.3-.23-.57-.53-.84-.67-.39-.22-.98-.04-1.43.07-1.32.38-2.75-.1-4.04-.37-2.92-.76-5.73-1.75-8.55-2.8l.94-2.06h0Z"/><path class="cls-2" d="M153.07,319.65s5.27,1.25,7.08,4.64"/><path class="cls-3" d="M153.07,319.65c2.9-.04,6.32,1.66,7.08,4.64-2.12-2.05-4.56-3.09-7.08-4.64h0Z"/><path class="cls-5" d="M122.59,362.35s-1.54-9.23,8.8-6.01c10.34,3.22-3.52,6.87-3.52,6.87,0,0-5.28,1.54-5.28-.86Z"/><path class="cls-5" d="M219.41,175.79s-5.03-8.84,5.8-8.94c8.46-.08.63,8.46.63,8.46,0,0-5.5,2.69-6.42.48Z"/><path class="cls-5" d="M121.72,279.4s-.84-7.05,5.47-4.33c3.13,1.35.86,4.3-1,5.17-.52.24-1.07.38-1.64.4-1.1.05-2.83-.06-2.83-1.24Z"/><path class="cls-5" d="M229.17,161.35s-.84-7.05,5.47-4.33c3.13,1.35.86,4.3-1,5.17-.52.24-1.07.38-1.64.4-1.1.05-2.83-.06-2.83-1.24Z"/><path class="cls-5" d="M215.56,174.39s.84-5.63-5.45-3.46c-3.11,1.07-.85,3.44,1,4.13.52.19,1.07.3,1.63.32,1.1.04,2.82-.05,2.82-.99Z"/><path class="cls-5" d="M232.4,169.06s-.5-4.19,3.23-2.58c1.85.8.51,2.56-.59,3.08-.31.14-.63.23-.97.24-.65.03-1.67-.04-1.67-.74Z"/><path class="cls-5" d="M221.46,162.88s-.42-3.77,2.76-2.32c1.58.72.43,2.3-.5,2.77-.26.13-.54.2-.82.22-.56.03-1.43-.03-1.43-.66Z"/><path class="cls-5" d="M391.87,324.07s-1.05-10.58,6.81-6.5c3.89,2.02,1.06,6.46-1.25,7.76-.65.37-1.34.57-2.04.61-1.37.07-3.52-.09-3.52-1.86Z"/><path class="cls-5" d="M382.97,276.14s.89-7.95-5.81-4.89c-3.32,1.52-.91,4.85,1.06,5.83.56.27,1.14.43,1.74.45,1.17.06,3.01-.07,3.01-1.4Z"/><path class="cls-5" d="M365.87,275.37s-.66-5.02,4.31-3.09c2.47.96.67,3.07-.79,3.68-.41.17-.85.27-1.29.29-.87.03-2.23-.04-2.23-.88Z"/><path class="cls-5" d="M381.65,323.15s-.81-7.1,5.25-4.37c3,1.36.82,4.34-.96,5.21-.5.25-1.03.38-1.57.41-1.06.05-2.72-.06-2.72-1.25Z"/><path class="cls-5" d="M405.42,323.46s-.69-5.36,4.46-3.3c2.55,1.02.7,3.27-.82,3.93-.43.19-.88.29-1.34.31-.9.04-2.31-.05-2.31-.94Z"/><path class="cls-5" d="M400.99,328.08s-.44-3.92,2.85-2.41c1.63.75.45,2.39-.52,2.87-.27.14-.56.21-.85.22-.57.03-1.47-.03-1.47-.69Z"/><path class="cls-5" d="M115.43,278.37s-.46-4.06,3.01-2.49c1.72.77.47,2.48-.55,2.98-.29.14-.59.22-.9.23-.61.03-1.56-.04-1.56-.71Z"/><path class="cls-5" d="M144.11,356.33s.93-6.47-5.31-4.21c-6.24,2.26,2.13,4.82,2.13,4.82,0,0,3.19,1.08,3.19-.6Z"/><path class="cls-5" d="M136.51,364.29s-.67-4.7,3.82-3.06c4.49,1.64-1.53,3.5-1.53,3.5,0,0-2.29.78-2.29-.44Z"/><path class="cls-6" d="M236.51,242.68s-1.88,29.67-12.57,54.51c0,0-2.31,13.28-25.87,37.27,0,0-28.58,26.18-44.37,32.95-15.79,6.77-37.72,7.52-37.72,7.52,0,0-9.13.67-18.37.2,0,0-19.18-1.22-24.94-.41s-6.16-.18-17.46,2.56,21.77-18.93,75.95-25.36c54.18-6.43,99.14-62.47,105.35-109.23Z"/></g></svg>