<?xml version="1.0" encoding="UTF-8"?><svg id="Layer_1" xmlns="http://www.w3.org/2000/svg" width="500" height="500" viewBox="0 0 500 500"><defs><style>.cls-1{fill:#ffc96c;}.cls-2{fill:#231f20;}.cls-3{fill:#ffe7ac;}.cls-4{fill:#e5c07b;}</style></defs><g id="bread"><path class="cls-1" d="M102.58,287.34s-78.62,56.24-50.22,121.06,162-61.49,162-61.49c0,0,175.49-138.67,178.44-141.94s97.46-69.84,52.18-114.98c-45.28-45.14-146.33,33.41-146.33,33.41,0,0,.27,23.25-25.1,17.41,0,0-17.29,7.32-36.26,27.49,0,0,.13,21.66-23.29,16.94,0,0-20.72,9.38-39.92,32.13,0,0,1.98,19.84-20.37,18.78,0,0-20.9,12.21-32.04,29.54,0,0,4.4,19.12-19.09,21.64Z"/><path class="cls-2" d="M381.66,216.05c-37.85,30.47-151.03,119.92-166.32,132-1.23,1.15-24.49,22.93-52.97,43.3-39.33,28.14-69.39,40.35-89.34,36.3-10.1-2.05-17.52-8.33-22.04-18.65-11.84-27.02-6.78-56.87,14.62-86.32,16.06-22.1,35.9-36.42,36.1-36.56l.32-.23.39-.04c7.22-.78,12.37-3.24,15.3-7.33,3.98-5.57,2.5-12.42,2.49-12.49l-.14-.61.34-.53c11.21-17.44,31.68-29.52,32.55-30.03l.38-.22.44.02c6.56.31,11.51-1.22,14.71-4.58,4.76-4.99,4.1-12.48,4.09-12.56l-.06-.63.41-.48c19.19-22.74,39.58-32.14,40.44-32.53l.44-.2.47.1c6.77,1.37,12.07.56,15.76-2.41.03-.02.06-.05.09-.07,5.61-4.6,5.65-12.9,5.65-12.98v-.6s.41-.44.41-.44c18.96-20.17,36.05-27.54,36.76-27.84l.45-.19.47.11c7.5,1.73,13.33.98,17.32-2.23h.01c5.94-4.79,5.94-13.62,5.94-13.7v-.74s.58-.46.58-.46c.25-.2,25.76-19.91,56.49-33.81,41.08-18.59,72.83-18.41,91.82.53,9.04,9.01,13.29,19.54,12.63,31.3-1.31,23.35-21.46,50.87-59.91,81.82-.61.49-1.22.98-1.84,1.48-1.43,1.14-2.77,2.21-3.01,2.46-.48.53-4.97,4.21-12.25,10.07ZM213.37,345.78l.05-.04c60.37-47.71,175.33-138.74,178.27-141.78.34-.38,1.22-1.08,3.35-2.78,38.96-31.02,59.35-58.29,60.63-81.11.61-10.86-3.35-20.62-11.75-29-22.77-22.7-60.65-12.5-88.42.06-27.91,12.62-51.48,30.1-55.37,33.04-.12,2.51-1,10.42-7.03,15.29h0c-4.65,3.75-11.17,4.73-19.39,2.94-2.74,1.26-18.21,8.88-34.93,26.53-.11,2.24-.91,9.9-6.71,14.68-.04.04-.09.07-.13.11-4.31,3.47-10.27,4.52-17.73,3.11-3,1.46-21.45,10.95-38.58,31.07.08,2.17-.07,9.12-4.93,14.24-3.75,3.94-9.32,5.81-16.59,5.55-2.8,1.7-20.77,13.02-30.85,28.34.33,2.06.96,8.56-3.07,14.22-3.39,4.75-9.12,7.63-17.04,8.56-2.56,1.9-20.47,15.49-35.16,35.72-21,28.93-25.8,56.95-14.26,83.29,4.11,9.38,10.8,15.07,19.89,16.92,45.78,9.29,138.77-78.01,139.7-78.89l.05-.05Z"/><path class="cls-3" d="M102,287.88c2,1.41,54.35,38.21,70.47,27.58.02-.01.02-.03.01-.05-.52-.76-12.34-17.62-50.03-48.63-.02-.01-.06,0-.05.01,2.17,3.06-3.62,22.2-20.38,21.03-.03,0-.05.04-.02.05Z"/><path class="cls-2" d="M174.6,315.84l-1.31.88c-16.63,10.96-66.52-23.64-72.15-27.62l-.93-.68.77-2.16,1.16.06c9.14.64,14.15-5.3,16.32-8.9,2.81-4.66,3.19-9.02,2.72-9.77l-.65-1.06.87-.93.95-.87,1.06.81c37.87,31.16,49.83,48.24,50.32,48.95l.88,1.27ZM106.47,289.16c18.71,12.71,51.19,31.17,63.8,25.79-3.34-4.38-15.91-19.66-46.04-44.73-.29,2.4-1.27,5.34-2.81,8.08-3.44,6.13-8.75,9.93-14.96,10.86Z"/><path class="cls-3" d="M154.16,237.23c2.1,1.5,57.26,40.67,74.02,29.67.02-.01.02-.03.01-.05-.56-.8-12.74-17.46-52.49-50.41-.02-.02-1.37,1.02-1.36,1.04,2.3,3.23-2.61,21.09-20.16,19.7-.03,0-.05.04-.02.05Z"/><path class="cls-2" d="M229.56,267.78l-.56.38c-7.47,4.9-22.29,1.52-44.03-10.07-16.03-8.54-30.08-18.49-31.67-19.62l-.94-.65.77-2.2,1.18.08c9.97.79,14.84-5.06,16.86-8.61,2.39-4.21,2.45-8.03,1.95-8.73l-.75-1.06.95-.91c1.58-1.5,2.48-1.8,3.33-1.1,41.01,34,52.66,50.56,52.77,50.72l.35.51-.22,1.27ZM158.72,238.6c19.71,13.55,54.06,33.38,67.23,27.8-3.58-4.51-17.08-20.36-49.64-47.5.27,2.62-.65,6.34-2.53,9.66-3.27,5.76-8.62,9.28-15.06,10.04Z"/><path class="cls-3" d="M215.44,185.83c1.82,1.31,52.17,36.54,67.63,26.69.02,0,.01-.03.01-.04-.04-.34-1.35-7.34-45.3-44.51-.02-.01-.99.31-.88,1.28.41,3.58-3.26,18.7-18.85,17.56-.03,0-2.63-1-2.61-.98Z"/><path class="cls-2" d="M284.67,213.24l-.79.54c-6.93,4.42-20.53,1.36-40.44-9.09-15.46-8.12-28.75-17.55-28.88-17.64l-1.05-.76.6-1.15c.62-1.19,1.52-.84,3.02-.27.47.18.97.37,1.23.47,5.05.32,9.17-1.16,12.25-4.37,3.9-4.06,5-9.82,4.8-11.53-.13-1.12.42-2.15,1.44-2.69.96-.51,1.6-.16,1.9.09,42.86,36.24,45.69,44.25,45.82,45.49l.1.92ZM221.66,188.28c14.98,9.91,47.37,28.88,59.51,23.56-1.62-2.78-9.07-12.76-42.76-41.37-.2,3.08-1.75,8.52-5.63,12.56-2.93,3.05-6.72,4.84-11.12,5.25ZM236.81,169.12s0,0,0,0c0,0,0,0,0,0Z"/><path class="cls-3" d="M277.28,142.45c1.82,1.31,52.73,38.73,68.19,28.87.02,0,0,.02,0,0-.04-.34-1.9-9.57-45.85-46.73-.02-.01-.99.31-.88,1.28.41,3.58-3.26,18.7-18.85,17.56-.03,0-2.63-1-2.61-.98Z"/><path class="cls-2" d="M346.37,172.98l-.6-.09c-6.97,3.88-20.17.53-39.27-9.97-13.28-7.3-25.35-15.81-29.92-19.12l-1.24-.89.61-1.15c.62-1.18,1.54-.83,3.05-.26.46.18.95.36,1.2.45,5.04.32,9.16-1.15,12.25-4.37,3.89-4.06,5-9.82,4.8-11.53-.13-1.11.42-2.14,1.44-2.69.91-.49,1.53-.22,1.9.09,39.05,33.02,45.23,44.22,46.2,47.03l.52.45-.94,2.05ZM283.35,144.92c5.89,4.09,14.93,10.06,24.6,15.38,17.23,9.47,29.5,13.02,35.66,10.33-1.49-3.01-8.78-14.14-43.36-43.53-.2,3.09-1.75,8.52-5.63,12.56-2.97,3.09-6.82,4.88-11.27,5.26Z"/><path class="cls-3" d="M60.24,404.03s-13.88-52.25,36.2-97.75c0,0,11.19-3.8,5.64,7.01-9.5,18.54-27.66,34.58-41.84,90.74Z"/><path class="cls-3" d="M429.44,96.05s-31.59-16.26-71.11,10.24c0,0-4.66,6.8,3.51,4.66,14-3.67,28.02-13.33,67.6-14.89Z"/><path class="cls-4" d="M238.42,170.5s-.63,6.16-4.38,11.03c0,0,46.7,32.4,47.15,30.27s-30.72-32.98-42.77-41.3Z"/><path class="cls-4" d="M176.32,219.04s1,5.56-4.55,12.61c3.25,4.73,54.77,39.06,54.16,34.74-.3-2.15-37.57-39.03-49.61-47.35Z"/><path class="cls-4" d="M124.23,270.31s-.14,4.63-5.28,11.61c3.25,4.73,51.26,35.36,51.34,32.92.07-2.17-34.02-36.21-46.06-44.54Z"/><path class="cls-4" d="M300.11,127.01s-.45,6.29-4.2,11.17c0,0,47.16,34.63,47.61,32.51s-11.52-16.55-43.41-43.67Z"/></g></svg>