<?xml version="1.0" encoding="UTF-8"?><svg id="Layer_1" xmlns="http://www.w3.org/2000/svg" width="500" height="500" viewBox="0 0 500 500"><defs><style>.cls-1{fill:#231f20;}.cls-2{fill:#668081;}.cls-3{fill:#668182;}.cls-4{fill:#ecd885;}.cls-5{fill:#e99623;}.cls-6{opacity:.84;}.cls-7{opacity:.68;}.cls-8{opacity:.66;}.cls-9{opacity:.5;}.cls-10{opacity:.49;}.cls-11{fill:#e8b520;}.cls-12{fill:#dee9aa;}.cls-13{fill:#f6cc56;}.cls-14{fill:#668082;}.cls-15{fill:#669998;}</style></defs><g id="cheese"><path class="cls-4" d="M100.9,258.76s65.14-55.84,95.53-68.48c3-1.25,5.8-2.87,8.43-4.74,15.56-11.1,65.23-46.24,74.77-49.29,11.35-3.63,57.69,5.47,57.69,5.47,0,0,71.87,20.14,96.46,61.33,0,0-190.08,45.73-332.87,55.71Z"/><path class="cls-1" d="M100.9,260.26c-.6,0-1.15-.36-1.39-.93-.25-.6-.08-1.29.41-1.71,2.67-2.29,65.67-56.14,95.94-68.72,2.74-1.14,5.48-2.68,8.13-4.57,19.44-13.87,65.68-46.46,75.18-49.5,11.58-3.7,56.52,5.05,58.43,5.43.04,0,.08.02.12.03.18.05,18.34,5.19,39.26,15.31,35.12,17,50.97,34.77,58.08,46.69.24.41.28.91.09,1.35-.19.44-.57.77-1.03.88-1.9.46-191.83,45.87-333.12,55.75-.04,0-.07,0-.11,0ZM287.83,136.88c-3.28,0-5.97.24-7.74.8-9.35,2.99-59.28,38.33-74.35,49.08-2.84,2.03-5.78,3.67-8.72,4.9-25.81,10.73-77.69,53.56-91.63,65.26,132.62-9.91,305.43-50,326.02-54.86-7.39-11.51-22.96-27.91-55.69-43.76-20.11-9.74-37.62-14.81-38.75-15.13-1.58-.31-32.67-6.3-49.14-6.3Z"/><path class="cls-13" d="M101.14,259.87l-.09,40.3c-.34,7.39-.11,14.79.69,22.14l3.01,36.27s0,8.66,12.63,5.19c0,0,226.77-19.62,315.79-42.71,0,0,7.81-43.68.6-118,0,0-153.08,35.46-332.63,56.81Z"/><path class="cls-1" d="M112.05,366.08c-2.4,0-4.36-.58-5.88-1.74-2.68-2.04-2.9-5.14-2.92-5.7l-3.01-36.22c-.8-7.37-1.04-14.9-.69-22.33l.09-40.23c0-.76.57-1.4,1.32-1.49,177.41-21.1,330.94-56.43,332.47-56.79.42-.1.86,0,1.21.24.35.25.58.64.62,1.07,7.16,73.67-.54,117.97-.61,118.41-.1.58-.53,1.04-1.1,1.19-46.07,11.95-129.56,22.94-191.49,30.05-65.48,7.52-121.29,12.42-124.42,12.69-2.07.56-3.93.83-5.59.83ZM102.64,261.2l-.08,38.97c-.34,7.35-.11,14.72.68,21.97l3.01,36.3s0,.08,0,.12c0,.07.06,2.13,1.77,3.41,1.79,1.34,4.89,1.45,8.96.33.09-.02.18-.04.27-.05.57-.05,57.45-4.99,124.48-12.7,61.41-7.06,144.03-17.92,190.12-29.73,1.05-6.7,6.87-48.61.59-114.95-17.12,3.88-162.73,36.35-329.8,56.3Z"/><path class="cls-15" d="M274.34,140.34s98.65-1.25,146.88,64.08l11.35-2.53c1.38-.65-59.28-71.38-152.25-64.54l-5.98,2.98Z"/><g class="cls-6"><path class="cls-5" d="M260.17,251.07l7.03-4.44c1.44-.91,3.13-1.46,4.86-1.43,2.38.05,4.72,1.07,1.58,5.87-3.05,4.67-7.13,5.85-9.99,6.02-2.05.12-3.99.97-5.32,2.47-.82.92-1.88,1.81-3.14,2.16-4.39,1.21-8.9-3.88-10.79-6.36-.81-1.06-1.24-2.38-1.02-3.67.24-1.47,2.56-1.84,4.71-1.09,6.45,2.23,5.57,4.6,12.09.48Z"/></g><g class="cls-6"><path class="cls-5" d="M160.91,267.77c.18-2.19,1.1-6.92,5.69-5.15,1.4.54,2.44,1.67,3.06,2.99.98,2.11,3.32,5.17,8.03,2.2,6.73-4.24,7.36,1.23,7.36,1.23,0,0,1.05,5.83-10.09,9.67-9.29,3.2-12.88-5.82-13.82-8.9-.2-.67-.28-1.35-.22-2.04Z"/></g><g class="cls-6"><path class="cls-5" d="M236.03,282.14c-1.02,1.93-2.97,3.67-6.01.27-1.03-1.16-1.43-2.71-1.28-4.23.23-2.3-.24-6.07-5.86-5.71-4.77.3-7.77-1.99-9.42-3.91-1.38-1.6-.9-3.97,1-4.96,1.61-.84,4.11-1.37,7.86-.51,9.6,2.21,13.3,10.69,13.15,13.89-.13,2.64,1.47,3.44.56,5.16Z"/></g><g class="cls-6"><path class="cls-5" d="M225.99,336.06c-4.11,0-3.48-5.87.48-8.24,3.51-2.09,7.13,0,11.25-1.39,2.27-.77,10.39-8.42,7.91-13.27-2.11-4.12-1.04-7.65.18-9.85,1.02-1.84,3.48-2.31,5.17-1,1.43,1.11,6.71,3.53,7.31,7.18,1.52,9.36-10.85,19.42-14.15,19.96-9.19,1.51-13.91,6.61-18.14,6.61Z"/></g><g class="cls-6"><path class="cls-5" d="M169.57,290.69s-10.57,4.7-5.76,10.17c1.7,1.94,4.29,2.94,6.94,2.98,6.79.1,23.83.41,28.34,1.01,9.72,1.29,13.59-9.96,13.59-9.96,0,0,3.72-8.94-5.76-10.54-9.47-1.61-18.03,5.56-18.03,5.56,0,0-2,6.12-9.29,2.45-7.29-3.67-10.02-1.66-10.02-1.66Z"/></g><g class="cls-6"><path class="cls-5" d="M134.56,322.04s-11.04,1.14-3.15-5.55,17.35,0,17.35,0c0,0,6.83,3.15,6.97,13.24.13,10.09,17.26-3.53,17.26-3.53,0,0,11.79-8.83,18.75-4.16s3.68,8.2,3.68,8.2c0,0-2.37,5.98-14.06,5.83-11.7-.15-16.82,7.92-16.82,7.92,0,0-3.94,4.29-14.06,0,0,0-8.02-2.02-5.26-15.89s-10.65-6.05-10.65-6.05Z"/></g><g class="cls-6"><path class="cls-5" d="M126.89,344.86s5.13-11.74-3.05-8.99-.94,10.93-.94,10.93c0,0,2.16,1.98,3.99-1.95Z"/></g><g class="cls-6"><path class="cls-5" d="M125.72,290.24s20.85-6.83,8.13-13.73c-12.72-6.9-15.11,11.04-15.11,11.04,0,0-.12,4.83,6.98,2.69Z"/></g><g class="cls-6"><path class="cls-5" d="M299.47,262.64c3.25-1.42,12.98-7.58,4.39-12.15-9.41-5.01-12.36,2.86-13.26,7.35-.56,2.81,1.51,5.59,4.48,5.72,1.19.05,2.65-.19,4.39-.92Z"/></g><g class="cls-6"><path class="cls-11" d="M338.23,211.5c3.25-1.42,6.5-4.36,1.85-6-8.21-2.89-12.49.53-12.71,1.46-.65,2.79,1.6,4.99,4.58,5.12,1.19.05,4.53.15,6.28-.59Z"/></g><g class="cls-6"><path class="cls-11" d="M378.61,197.08c3.25-1.42,5.71-3.98.81-4.62-4.38-.57-7.25.98-7.46,1.92-.19.8.08,2.19,2.27,2.71,1.16.27,2.64.73,4.38,0Z"/></g><g class="cls-6"><path class="cls-11" d="M324.42,169.23c3.25-1.42,3.35-6.9-1.57-6.38-8.39.88-8.17-.53-9.29,1.84-1.22,2.61,1.6,4.99,4.58,5.12,1.19.05,4.53.15,6.28-.59Z"/></g><g class="cls-6"><path class="cls-5" d="M403.45,278.94c.59-1.51,1.22-6.79-5.33-6.13-7.18.72-3.78,4.72-1.49,6.78,1.43,1.29,4.02,1.8,5.42.99.56-.33,1.06-.84,1.4-1.64Z"/></g><g class="cls-6"><path class="cls-5" d="M132.09,271.03s12.13,2.88,7.79-2.97c-2.66-3.59-9.63-.27-9.63-.27,0,0-1.67,1.89,1.84,3.24Z"/></g><g class="cls-6"><path class="cls-5" d="M232.02,313.54s-12.2,2.58-5.24,7.27c4.27,2.88,8.6-4.4,8.6-4.4,0,0,.44-3.02-3.36-2.87Z"/></g><g class="cls-6"><path class="cls-5" d="M281.75,319.63s-12.26,2.31-4.9,8.98c4.52,4.09,8.49-4.97,8.49-4.97,0,0,.27-3.88-3.59-4.01Z"/></g><g class="cls-6"><path class="cls-5" d="M258.13,285.89c1.08,2.32,5.96,2.98,5.94.43-.06-6.7,7.24-7.34,1.27-12.74-3.32-3.01-6.43,3.89-7.44,7.21-.5,1.67-.35,3.83.21,5.05,0,.01.01.03.02.04Z"/></g><g class="cls-6"><path class="cls-11" d="M219.2,225.62c-1.54,2.07-.96,6.07,2.48,4.56,8.97-3.91,14.84,1.13,15.29-4.57.17-2.16-7.72-3.25-11.22-2.41-1.75.42-5.71,1.29-6.53,2.37,0,.01-.02.03-.03.04Z"/></g><g class="cls-6"><path class="cls-5" d="M292.42,304.95s-22.89-12.86,0-21.13c0,0,4.5-1.6,9.4-7.09s11.44,0,11.44,0c0,0,3.68,8.12-2.86,14.06,0,0-4.09,2.29-3.27,10.78.82,8.49-14.71,3.38-14.71,3.38Z"/></g><g class="cls-6"><path class="cls-5" d="M311.09,327.26s-6.05-1.58-2.57-4.75c.71-.65,1.6-1.07,2.54-1.33,3.39-.93,12.8-3.86,12.49-7.63-.17-2.15.02-3.84.27-5.02.31-1.45,1.31-2.67,2.71-3.29,1.89-.83,4.45-1.02,4.79,3.72.56,7.64-3.15,9.87-3.15,9.87,0,0-12.5,10.26-17.1,8.44Z"/></g><g class="cls-6"><path class="cls-5" d="M344.03,286.32c-.7-.25-1.43-.44-2.17-.51-1.19-.11-3.19-.74-.24-3.9,3.93-4.22,8.33-1.51,8.33-1.51,0,0,2.99,3.92,6.91-3.02,3.93-6.94,9.11-8.59,9.11-8.59,0,0,8.17-2,4.4,4.05,0,0-10.37,7.86-10.37,9.67,0,0-2.99,2.71-1.57,12.67,1.41,9.95-6.6,6.4-6.6,6.4,0,0-3.61-1.57.16-6.7,2.98-4.05-4.62-7.34-7.95-8.55Z"/></g><g class="cls-6"><path class="cls-5" d="M345.08,258.44c-.67.26-1.3.59-1.9.97-2.91,1.89-11.66,6.8-14.14-.65-.51-1.55-.73-2.81-.74-3.84-.02-3.26,4.01-4.98,6.52-2.78,1.73,1.51,4.49,3.18,6.94,1.4,3.93-2.85,5.97,0,5.97,0,0,0,1.95,3.09-2.66,4.9Z"/></g><g class="cls-6"><path class="cls-5" d="M371.66,315.39c-.87.55-1.92.8-2.95.7-1.69-.16-2.57-1.48.04-3.23,5.46-3.68,7.09-4.93,7.09-4.93,0,0,2.78.93,2.5-14.67,0,0,3.2-10.53,13.48-6.4,10.28,4.13,1.81,12.4,1.81,12.4,0,0-2.78,2.43-2.64,7.22s-9.16,5.05-9.16,5.05c0,0-4.2.11-10.15,3.87Z"/></g><g class="cls-6"><path class="cls-5" d="M333.99,233.45s-2.4-7.45,3.81-5.32c1.34.46,2.38,1.51,2.8,2.81.52,1.63,1.55,3.4,2.22,3.93,1.18.95,1.83,2.7,1.83,2.7,0,0,.05,2.79-4.56.93-4.61-1.87-6.09-5.06-6.09-5.06Z"/></g><g class="cls-6"><path class="cls-5" d="M372.39,243.48s-6.23-1.94.22-10.03c5.51-6.91,9.4-6.26,9.4-6.26l7.88-.04c.46,0,.91.07,1.35.15.81.15,2.65.05,5.66-2.39,4.21-3.42,5.74,0,5.74,0,0,0,1.48,4.71-3.84,8.54-5.32,3.83-14.15,10.84-14.15,10.84,0,0-4.54,3.91-12.27-.81Z"/></g><g class="cls-6"><path class="cls-11" d="M278.88,212.68c-1.73-.65-3.97-1.94-1.01-3.64.87-.5,1.84-.79,2.85-.93,2.98-.42,11.15-2.1,14.77-8.31,4.47-7.68-7.2-8.57-7.2-8.57,0,0-4.3-3.6,3.96-4.89,8.31-1.3,15.06,11.55,15.06,11.55,0,0,3.61,6.22-5.65,9.03,0,0-7.94.53-12.24,3.41-2.05,1.37-5.74,2.21-7.71,2.58-.95.18-1.93.1-2.83-.24Z"/></g><g class="cls-6"><path class="cls-11" d="M259.23,173.02s-7.9.13-14,2.33c-3.65,1.31-3.12-5.32-3.12-5.32,0,0,.17-5.32,12.81-4.32,12.64,1,12.41-4.82,12.41-4.82,0,0-.12-6.98,13.56-3.49,13.68,3.49,1.73,13.46,1.73,13.46,0,0-2.58,2.73-15.29,1.83l-8.11.33Z"/></g><g class="cls-6"><path class="cls-11" d="M335.99,183.98s-7.66-4.5,2.97-6.69c10.63-2.19,19.89,4.17,19.89,4.17,0,0,11.89,9.87-4.69,10.97,0,0-4.12.77-10.63-5.27,0,0-.91-1.97-7.54-3.18Z"/></g><g class="cls-6"><path class="cls-11" d="M240.88,204.35c-1.05,0-2.1-.16-3.09-.5-3.03-1.02-8.27-3.5-.81-6.77,9.9-4.34,20.62-2.18,20.62-2.18,0,0,9.07,1.83,5.05,8.15-2.62,4.1-6.26,4.23-8.49,3.82-.89-.17-1.71-.57-2.48-1.04-.92-.57-3.54-1.51-10.79-1.48Z"/></g><g class="cls-6"><path class="cls-11" d="M206.29,192.67s-5.79-4.5,6.37-8.79c12.16-4.29,5.72,6.34,5.72,6.34,0,0-6.77,5.11-12.09,2.45Z"/></g><g class="cls-6"><path class="cls-11" d="M186.91,219.45c-12.28-2.79-1.83-10.32-1.83-10.32,0,0,2.38-2.44,10.44-1.52,1.68.19,3.38-.2,4.77-1.11,3.06-2,8.78-4.94,12.21-1.76,4.87,4.5,0,7.36,0,7.36,0,0-3.83,5.3-12.27,3.86-1.63-.28-3.31.03-4.71.88-2.32,1.4-5.98,3.22-8.62,2.62Z"/></g><g class="cls-6"><path class="cls-11" d="M153.19,231.62c-.38.27-.78.49-1.22.65-2.19.8-8.69,3.57-4.6,7.17,4.19,3.68,17.66-2.41,21.38-4.2.85-.41,1.59-1.01,2.06-1.81.85-1.44,1.05-3.62-4.76-4.36-7.15-.9-11.44,1.53-12.87,2.55Z"/></g><path class="cls-2" d="M422.36,207.35s8.44,43.88-.28,114.71l9.54-2.11s9.28-54.56.98-115.13l-10.24,2.54Z"/><g class="cls-10"><path class="cls-15" d="M425.26,234.22s-9.95-1.03-8.75,3.29-.1,4.89-.1,4.89c0,0-6.62.58-6.03,3.05s4.1,2.91,3.63,5.35-4.05,4.73-3.66,5.8-4.02,5.48-2.12,6.49c1.9,1.01,3.26,1.99,1.97,3.31s-2.36,1.35-1.24,3.11,2.87,7.26.21,7-7.96.57-5.52,2.08c2.44,1.51,1.06,4.07.35,4.88s-4.93,2.72-3.25,5.24-6.09,5.58-4.77,7.32-7.78,3.41-4.07,5.8c3.71,2.39,4.15-.69,3.71,2.39s-13.66,4.76-10.57,6.59,3.53-1.01,3.09,1.82-8.82-.26-8.76,1.79-3.38,2.73-3.38,2.73c0,0-5.75-2.32-4.45,0s.81,5.67-1.68,6-7.84.73-6.7,2.75,1.89,3.79-.16,4.87-3.4,2.91-3.4,2.91c0,0,62.1-10.22,62.66-11.98.35-1.09,5.76-46.04,2.99-87.48Z"/></g><g class="cls-8"><path class="cls-14" d="M424.7,321.43c.76-.21,10.06-49.96,7.85-82.25,0,0-6.12-1.55-4.93,2.63s-.1,4.74-.1,4.74c0,0-4.57.61-3.99,3.01s2.07,2.77,1.6,5.13-3.42,3.26-3.03,4.29-3.22,4.87-1.33,5.85,1.86,3.7.57,4.98-1.72,2.52-.6,4.22,2.23,5.83-.42,5.57-3.43.11-3.56,2.2c-.16,2.7-.89,3.76-1.6,4.54s-4.11,1.74-3.23,5.08c.73,2.81-4.53,3.64-3.47,5.84.94,1.95-5.46,5.78-5.33,6.89.19,1.68,2.75.97,3.7,2.32,1.77,2.53-9.7,2.66-8.54,4.54.86,1.4,1.22,2.96,1.09,3.61-.54,2.73-8-.06-8.72,1.73-.12.31-.3.59-.51.84-1.06,1.29-2.95,1.7-4.61,1.21-1.56-.46-2.19.2-2.67.6-2.06,1.68.81,5.5-1.68,5.81s-7.71.66-6.67,2.67c.06.11.06,1.01.03,2-.03,1.27-.68,1.79-.17,1.7,0,0,39.14-6.65,50.35-9.77Z"/></g><g class="cls-10"><path class="cls-15" d="M335.87,252.24c-6.11-3.58-2.53-7.17-2.53-7.17,0,0,8.2-1.96,7.28-3.93s-3.07-6.41.07-6.24,7.34-1.94,7.34-1.94c0,0,3.15-8.06,5.56-4.14s6.4,3.82,6.4,3.82c0,0,2.9-2.41,4.3-1.15s6.44,3.17,4.59,5.19,4.18,3.3,4.18,3.3c0,0,7.13.12,3.31,5.2-3.82,5.09,2.16,5.75,2.16,5.75,0,0,6.33,1.01,1.89,4.37-4.45,3.36-6.71,3.67-6.71,3.67,0,0-10.23-.77-2.48,1.79s-2.35,5.29-2.35,5.29c0,0-3.49-.36-3.15,1.24s-7.1,0-7.1,0c0,0-7.49-2.22-6.2,2.17s-4.82,1.41-4.82,1.41l-2.58-4.65s-6.37-3.79-6.37-1.32-6.36-2.13-6.36-2.13c0,0-2.81-5.39,1.48-4.75,4.3.64,2.09-5.79,2.09-5.79Z"/></g><g class="cls-7"><path class="cls-3" d="M342.68,244.78c.34-.21,0-1.74.1-2.12.47-1.87,2.33-7.01,8.1-4.21,4.75,2.3,7.27-.14,7.27-.14,0,0,5.83-3.37,5.72,3.5,0,0-.15,5.46,3.12,6.54,1.27.42,1.72,1.27,1.8,2.16.12,1.5-.86,2.87-2.26,3.48-1.47.64-3.41,1.7-3.08,2.73.52,1.62,3.09,5.37-.36,6.48-2.36.76-4.16.3-5.07-.06-.35-.14-.65-.34-.94-.58-.87-.72-3.47-2.5-5.05.18-1.92,3.26-5.05,1.71-5.05,1.71,0,0-3.57-.21-4.84-3.21s.49-4.62.49-4.62c0,0,3.45-3.53-.3-4.67-3.75-1.14-1.73-4.79-1.73-4.79,0,0-.2-1.02,2.06-2.39Z"/></g><g class="cls-9"><path class="cls-15" d="M335.75,337.28s7.5-9.5-.34-7.57c-7.84,1.92-6.08-2.23-6.08-2.23,0,0-6.67-4.7-6.55,0s-.24,5.17-1.93,6.21-4.33-2.13-4.33-2.13c0,0-2.26-5.13-4.94-1.85,0,0-1.83,4.44-6.72,3.98s-.43-7.38-4.43-6.21c-4,1.17-5.49,1-5.56-1.24s-6.34-4.22-7.3-1.58-4.96,3.22-6.47,2.82-6.2-3-6.6-7.84-6.81-.81-6.81-.81c0,0-.31,6.34-3.5,5.83s-5.78-4.33-5.78-4.33c0,0-2.54-3.05-5.22-.69s-3.26,5.02-3.26,5.02c0,0-1.78,3.64-4.01,0s-6.27-3.16-6.27-3.16c0,0-3.38,1.38-2.65,3.16s.91,4.13-.1,5.02-3.83-.86-3.83-.86c0,0-2.76-.82-3.04.86s-1.75,2.43-1.25,4.01-.49,5.47-2.42,4.91-2.64-4.01-4.31-2.53-2.92,2.33-2.24,3.94.32,3.46-1.38,3.51-3.44-2.14-3.39,0-.17,3.6-2.37,3.85-2.54-3.82-4.23-3.57-3.07,3.58-3.07,3.58c0,0,1.39,1.8,0,2.64s-3.96.31-3.92,1.53-2.18.93-2.18.93c0,0-1.78.61-1.64,1.1s-1.13.77-1.13.77c0,0,114.16-12.49,139.25-17.07Z"/></g><g class="cls-8"><path class="cls-3" d="M214.54,352.34s-2.35-3.9,3.73-4.57,6.37-1.89,6.37-1.89c0,0,4.69-5.15,6.45-2.71s4.31,2.12,4.31,2.12c0,0,3.51-9.19,6.49-5.04,2.98,4.15,7.54.53,7.54.53,0,0-.03-5.8,2.97-4.73,3.01,1.07,5.11-2.22,5.11-2.22,0,0,4.23-4.98,6.47,0s4.88,3.92,4.88,3.92c0,0,2.43-2.64,4.01-1.97s2.15,2.4,2.15,2.4c0,0,3.68,1.51,6.18-1.55,2.5-3.06,4.92-.58,4.92-.58,0,0,1.25,2.77,2.67,2.73s4.09-1.98,4.65-.63,4.06,1.38,4.06,1.38c0,0,4.34-2.24,4.37-1.37s3.14.91,3.14.91c0,0,3.58-1.72,5.3-.65s3.98,2.03,3.98,2.03c0,0-93.9,11.83-99.76,11.89Z"/></g><path class="cls-3" d="M341.39,330.7c.29,1.43,1.38.77,1.38.77,0,0,1.41-1.04.64-1.26,0,0-.07-.77-.89-.61s-1.12,1.1-1.12,1.1Z"/><path class="cls-3" d="M342.29,334.15c.37,1.9,1.73,1.03,1.73,1.03,0,0,1.77-1.39.8-1.69,0,0-.09-1.03-1.12-.81s-1.41,1.47-1.41,1.47Z"/><path class="cls-3" d="M341.39,326.03c.58,2.86,2.75,1.54,2.75,1.54,0,0,2.82-2.09,1.28-2.53,0,0-.15-1.55-1.78-1.21s-2.24,2.2-2.24,2.2Z"/><path class="cls-3" d="M353.98,326.78c.58,2.86,2.75,1.54,2.75,1.54,0,0,2.82-2.09,1.28-2.53,0,0-.15-1.55-1.78-1.21s-2.24,2.2-2.24,2.2Z"/><path class="cls-3" d="M358.03,321.57c.58,2.86,2.75,1.54,2.75,1.54,0,0,2.82-2.09,1.28-2.53,0,0-.15-1.55-1.78-1.21s-2.24,2.2-2.24,2.2Z"/><path class="cls-3" d="M348.43,332.85c.58,2.86,2.75,1.54,2.75,1.54,0,0,2.82-2.09,1.28-2.53,0,0-.15-1.55-1.78-1.21s-2.24,2.2-2.24,2.2Z"/><path class="cls-3" d="M347.37,329.1c.23,1.1,1.1.6,1.1.6,0,0,1.13-.8.51-.98,0,0-.06-.6-.72-.47s-.9.85-.9.85Z"/><path class="cls-3" d="M350.98,325.4c.23,1.1,1.1.6,1.1.6,0,0,1.13-.8.51-.98,0,0-.06-.6-.72-.47s-.9.85-.9.85Z"/><path class="cls-3" d="M351.88,329.1c.23,1.1,1.1.6,1.1.6,0,0,1.13-.8.51-.98,0,0-.06-.6-.72-.47s-.9.85-.9.85Z"/><path class="cls-3" d="M360.06,325.91c.23,1.1,1.1.6,1.1.6,0,0,1.13-.8.51-.98,0,0-.06-.6-.72-.47s-.9.85-.9.85Z"/><path class="cls-3" d="M359.61,329.89c.23,1.1,1.1.6,1.1.6,0,0,1.13-.8.51-.98,0,0-.06-.6-.72-.47s-.9.85-.9.85Z"/><path class="cls-3" d="M354.43,330.68c.23,1.1,1.1.6,1.1.6,0,0,1.13-.8.51-.98,0,0-.06-.6-.72-.47s-.9.85-.9.85Z"/><path class="cls-3" d="M347.37,324.23c.23,1.04,1.1.56,1.1.56,0,0,1.13-.76.51-.92,0,0-.06-.57-.71-.44s-.9.8-.9.8Z"/><path class="cls-3" d="M386.34,252.58c.29,1.43,1.38.77,1.38.77,0,0,1.41-1.04.64-1.26,0,0-.07-.77-.89-.61s-1.12,1.1-1.12,1.1Z"/><path class="cls-3" d="M383.13,254.39c.29,1.43,1.38.77,1.38.77,0,0,1.41-1.04.64-1.26,0,0-.07-.77-.89-.61s-1.12,1.1-1.12,1.1Z"/><path class="cls-3" d="M370.36,254.86c.29,1.43,1.38.77,1.38.77,0,0,1.41-1.04.64-1.26,0,0-.07-.77-.89-.61s-1.12,1.1-1.12,1.1Z"/><path class="cls-3" d="M377.5,249.85c.29,1.43,1.38.77,1.38.77,0,0,1.41-1.04.64-1.26,0,0-.07-.77-.89-.61s-1.12,1.1-1.12,1.1Z"/><path class="cls-3" d="M405,248.98c.29,1.43,1.38.77,1.38.77,0,0,1.41-1.04.64-1.26,0,0-.07-.77-.89-.61s-1.12,1.1-1.12,1.1Z"/><path class="cls-3" d="M401.67,255.41c.29,1.43,1.38.77,1.38.77,0,0,1.41-1.04.64-1.26,0,0-.07-.77-.89-.61s-1.12,1.1-1.12,1.1Z"/><path class="cls-3" d="M386.34,247.9c.58,2.86,2.75,1.54,2.75,1.54,0,0,2.82-2.09,1.28-2.53,0,0-.15-1.55-1.78-1.21s-2.24,2.2-2.24,2.2Z"/><path class="cls-3" d="M379.06,252.91c.58,2.86,2.75,1.54,2.75,1.54,0,0,2.82-2.09,1.28-2.53,0,0-.15-1.55-1.78-1.21s-2.24,2.2-2.24,2.2Z"/><path class="cls-3" d="M370.12,249.95c.58,2.86,2.75,1.54,2.75,1.54,0,0,2.82-2.09,1.28-2.53,0,0-.15-1.55-1.78-1.21s-2.24,2.2-2.24,2.2Z"/><path class="cls-3" d="M398.94,248.65c.58,2.86,2.75,1.54,2.75,1.54,0,0,2.82-2.09,1.28-2.53,0,0-.15-1.55-1.78-1.21s-2.24,2.2-2.24,2.2Z"/><path class="cls-3" d="M402.98,243.44c.58,2.86,2.75,1.54,2.75,1.54,0,0,2.82-2.09,1.28-2.53,0,0-.15-1.55-1.78-1.21s-2.24,2.2-2.24,2.2Z"/><path class="cls-3" d="M408.37,251.66c.58,2.86,2.75,1.54,2.75,1.54,0,0,2.82-2.09,1.28-2.53,0,0-.15-1.55-1.78-1.21s-2.24,2.2-2.24,2.2Z"/><path class="cls-3" d="M365.67,242.65c.58,2.86,2.75,1.54,2.75,1.54,0,0,2.82-2.09,1.28-2.53,0,0-.15-1.55-1.78-1.21s-2.24,2.2-2.24,2.2Z"/><path class="cls-3" d="M392.83,241.4c.58,2.86,2.75,1.54,2.75,1.54,0,0,2.82-2.09,1.28-2.53,0,0-.15-1.55-1.78-1.21s-2.24,2.2-2.24,2.2Z"/><path class="cls-3" d="M379.76,240.61c.58,2.86,2.75,1.54,2.75,1.54,0,0,2.82-2.09,1.28-2.53,0,0-.15-1.55-1.78-1.21s-2.24,2.2-2.24,2.2Z"/><path class="cls-3" d="M393.38,254.72c.58,2.86,2.75,1.54,2.75,1.54,0,0,2.82-2.09,1.28-2.53,0,0-.15-1.55-1.78-1.21s-2.24,2.2-2.24,2.2Z"/><path class="cls-3" d="M392.32,250.98c.23,1.1,1.1.6,1.1.6,0,0,1.13-.8.51-.98,0,0-.06-.6-.72-.47s-.9.85-.9.85Z"/><path class="cls-3" d="M395.93,247.27c.23,1.1,1.1.6,1.1.6,0,0,1.13-.8.51-.98,0,0-.06-.6-.72-.47s-.9.85-.9.85Z"/><path class="cls-3" d="M396.83,250.98c.23,1.1,1.1.6,1.1.6,0,0,1.13-.8.51-.98,0,0-.06-.6-.72-.47s-.9.85-.9.85Z"/><path class="cls-3" d="M399.38,252.55c.23,1.1,1.1.6,1.1.6,0,0,1.13-.8.51-.98,0,0-.06-.6-.72-.47s-.9.85-.9.85Z"/><path class="cls-3" d="M404.33,252.55c.23,1.1,1.1.6,1.1.6,0,0,1.13-.8.51-.98,0,0-.06-.6-.72-.47s-.9.85-.9.85Z"/><path class="cls-3" d="M397.9,257.62c.23,1.1,1.1.6,1.1.6,0,0,1.13-.8.51-.98,0,0-.06-.6-.72-.47s-.9.85-.9.85Z"/><path class="cls-3" d="M407.47,247.27c.23,1.1,1.1.6,1.1.6,0,0,1.13-.8.51-.98,0,0-.06-.6-.72-.47s-.9.85-.9.85Z"/><path class="cls-3" d="M410.61,247.31c.23,1.1,1.1.6,1.1.6,0,0,1.13-.8.51-.98,0,0-.06-.6-.72-.47s-.9.85-.9.85Z"/><path class="cls-3" d="M382.65,248.53c.23,1.1,1.1.6,1.1.6,0,0,1.13-.8.51-.98,0,0-.06-.6-.72-.47s-.9.85-.9.85Z"/><path class="cls-3" d="M375.33,253.58c.23,1.1,1.1.6,1.1.6,0,0,1.13-.8.51-.98,0,0-.06-.6-.72-.47s-.9.85-.9.85Z"/><path class="cls-3" d="M375.33,246.11c.23,1.1,1.1.6,1.1.6,0,0,1.13-.8.51-.98,0,0-.06-.6-.72-.47s-.9.85-.9.85Z"/><path class="cls-3" d="M372.36,244.58c.23,1.1,1.1.6,1.1.6,0,0,1.13-.8.51-.98,0,0-.06-.6-.72-.47s-.9.85-.9.85Z"/><path class="cls-3" d="M367.91,246.53c.23,1.1,1.1.6,1.1.6,0,0,1.13-.8.51-.98,0,0-.06-.6-.72-.47s-.9.85-.9.85Z"/><path class="cls-3" d="M389.92,254.6c.23,1.1,1.1.6,1.1.6,0,0,1.13-.8.51-.98,0,0-.06-.6-.72-.47s-.9.85-.9.85Z"/><path class="cls-3" d="M393.22,260.06c.23,1.1,1.1.6,1.1.6,0,0,1.13-.8.51-.98,0,0-.06-.6-.72-.47s-.9.85-.9.85Z"/><path class="cls-3" d="M385.35,256.3c.23,1.1,1.1.6,1.1.6,0,0,1.13-.8.51-.98,0,0-.06-.6-.72-.47s-.9.85-.9.85Z"/><path class="cls-3" d="M398.48,243.32c.23,1.1,1.1.6,1.1.6,0,0,1.13-.8.51-.98,0,0-.06-.6-.72-.47s-.9.85-.9.85Z"/><path class="cls-3" d="M392.32,246.11c.23,1.04,1.1.56,1.1.56,0,0,1.13-.76.51-.92,0,0-.06-.57-.71-.44s-.9.8-.9.8Z"/><path class="cls-12" d="M342.62,250.22c.81,1.23,1.57.24,1.57.24,0,0,.92-1.46.12-1.4,0,0-.36-.7-1.06-.26s-.63,1.41-.63,1.41Z"/><path class="cls-12" d="M346.55,250.22c.81,1.23,1.57.24,1.57.24,0,0,.92-1.46.12-1.4,0,0-.36-.7-1.06-.26s-.63,1.41-.63,1.41Z"/><path class="cls-12" d="M344.33,246.42c1.62,2.46,3.15.49,3.15.49,0,0,1.84-2.92.24-2.8,0,0-.72-1.39-2.12-.51s-1.27,2.83-1.27,2.83Z"/><path class="cls-12" d="M351.27,257.9c1.62,2.46,3.15.49,3.15.49,0,0,1.84-2.92.24-2.8,0,0-.72-1.39-2.12-.51s-1.27,2.83-1.27,2.83Z"/><path class="cls-12" d="M358.44,242.94c1.62,2.46,3.15.49,3.15.49,0,0,1.84-2.92.24-2.8,0,0-.72-1.39-2.12-.51s-1.27,2.83-1.27,2.83Z"/><path class="cls-12" d="M359.25,249.82c1.62,2.46,3.15.49,3.15.49,0,0,1.84-2.92.24-2.8,0,0-.72-1.39-2.12-.51s-1.27,2.83-1.27,2.83Z"/><path class="cls-12" d="M344.33,260.66c1.62,2.46,3.15.49,3.15.49,0,0,1.84-2.92.24-2.8,0,0-.72-1.39-2.12-.51s-1.27,2.83-1.27,2.83Z"/><path class="cls-12" d="M347.56,255.81c.63.95,1.25.17,1.25.17,0,0,.75-1.14.11-1.09,0,0-.28-.54-.84-.19s-.52,1.1-.52,1.1Z"/><path class="cls-12" d="M350.46,242.37c.63.95,1.25.17,1.25.17,0,0,.75-1.14.11-1.09,0,0-.28-.54-.84-.19s-.52,1.1-.52,1.1Z"/><path class="cls-12" d="M356.65,259.51c.63.95,1.25.17,1.25.17,0,0,.75-1.14.11-1.09,0,0-.28-.54-.84-.19s-.52,1.1-.52,1.1Z"/><path class="cls-12" d="M359.65,256.6c.63.95,1.25.17,1.25.17,0,0,.75-1.14.11-1.09,0,0-.28-.54-.84-.19s-.52,1.1-.52,1.1Z"/><path class="cls-12" d="M364.04,250.48c.63.95,1.25.17,1.25.17,0,0,.75-1.14.11-1.09,0,0-.28-.54-.84-.19s-.52,1.1-.52,1.1Z"/><path class="cls-12" d="M364.86,253.09c.63.95,1.25.17,1.25.17,0,0,.75-1.14.11-1.09,0,0-.28-.54-.84-.19s-.52,1.1-.52,1.1Z"/><path class="cls-12" d="M360.46,260.1c.63.95,1.25.17,1.25.17,0,0,.75-1.14.11-1.09,0,0-.28-.54-.84-.19s-.52,1.1-.52,1.1Z"/><path class="cls-12" d="M356.35,256.94c.63.95,1.25.17,1.25.17,0,0,.75-1.14.11-1.09,0,0-.28-.54-.84-.19s-.52,1.1-.52,1.1Z"/><path class="cls-12" d="M349.65,260.94c.63.95,1.25.17,1.25.17,0,0,.75-1.14.11-1.09,0,0-.28-.54-.84-.19s-.52,1.1-.52,1.1Z"/><path class="cls-12" d="M344.73,255.81c.63.95,1.25.17,1.25.17,0,0,.75-1.14.11-1.09,0,0-.28-.54-.84-.19s-.52,1.1-.52,1.1Z"/><path class="cls-12" d="M345.54,252.94c.63.95,1.25.17,1.25.17,0,0,.75-1.14.11-1.09,0,0-.28-.54-.84-.19s-.52,1.1-.52,1.1Z"/><path class="cls-12" d="M355.54,242.37c.63.95,1.25.17,1.25.17,0,0,.75-1.14.11-1.09,0,0-.28-.54-.84-.19s-.52,1.1-.52,1.1Z"/><path class="cls-12" d="M352.48,242.83c.63.95,1.25.17,1.25.17,0,0,.75-1.14.11-1.09,0,0-.28-.54-.84-.19s-.52,1.1-.52,1.1Z"/><path class="cls-12" d="M346.55,240.78c.61.89,1.24.14,1.24.14,0,0,.76-1.1.13-1.04,0,0-.27-.51-.83-.17s-.53,1.06-.53,1.06Z"/><path class="cls-12" d="M349.65,245.62c.61.89,1.24.14,1.24.14,0,0,.76-1.1.13-1.04,0,0-.27-.51-.83-.17s-.53,1.06-.53,1.06Z"/><path class="cls-12" d="M401.78,313.09c.81,1.23,1.57.24,1.57.24,0,0,.92-1.46.12-1.4,0,0-.36-.7-1.06-.26s-.63,1.41-.63,1.41Z"/><path class="cls-12" d="M399.76,318.35c1.62,2.46,3.15.49,3.15.49,0,0,1.84-2.92.24-2.8,0,0-.72-1.39-2.12-.51s-1.27,2.83-1.27,2.83Z"/><path class="cls-12" d="M409.49,310.94c1.62,2.46,3.15.49,3.15.49,0,0,1.84-2.92.24-2.8,0,0-.72-1.39-2.12-.51s-1.27,2.83-1.27,2.83Z"/><path class="cls-12" d="M408.14,320.26c1.62,2.46,3.15.49,3.15.49,0,0,1.84-2.92.24-2.8,0,0-.72-1.39-2.12-.51s-1.27,2.83-1.27,2.83Z"/><path class="cls-12" d="M409.49,302.51c1.62,2.46,3.15.49,3.15.49,0,0,1.84-2.92.24-2.8,0,0-.72-1.39-2.12-.51s-1.27,2.83-1.27,2.83Z"/><path class="cls-12" d="M413.52,295.34c1.62,2.46,3.15.49,3.15.49,0,0,1.84-2.92.24-2.8,0,0-.72-1.39-2.12-.51s-1.27,2.83-1.27,2.83Z"/><path class="cls-12" d="M406.54,316.48c.63.95,1.25.17,1.25.17,0,0,.75-1.14.11-1.09,0,0-.28-.54-.84-.19s-.52,1.1-.52,1.1Z"/><path class="cls-12" d="M413.78,313.4c.63.95,1.25.17,1.25.17,0,0,.75-1.14.11-1.09,0,0-.28-.54-.84-.19s-.52,1.1-.52,1.1Z"/><path class="cls-12" d="M414.59,317.33c.63.95,1.25.17,1.25.17,0,0,.75-1.14.11-1.09,0,0-.28-.54-.84-.19s-.52,1.1-.52,1.1Z"/><path class="cls-12" d="M406.54,312.55c.63.95,1.25.17,1.25.17,0,0,.75-1.14.11-1.09,0,0-.28-.54-.84-.19s-.52,1.1-.52,1.1Z"/><path class="cls-12" d="M410.16,315.27c.63.95,1.25.17,1.25.17,0,0,.75-1.14.11-1.09,0,0-.28-.54-.84-.19s-.52,1.1-.52,1.1Z"/><path class="cls-12" d="M414.72,299.63c.63.95,1.25.17,1.25.17,0,0,.75-1.14.11-1.09,0,0-.28-.54-.84-.19s-.52,1.1-.52,1.1Z"/><path class="cls-12" d="M418.78,297.8c.63.95,1.25.17,1.25.17,0,0,.75-1.14.11-1.09,0,0-.28-.54-.84-.19s-.52,1.1-.52,1.1Z"/><path class="cls-12" d="M419.59,289.77c.63.95,1.25.17,1.25.17,0,0,.75-1.14.11-1.09,0,0-.28-.54-.84-.19s-.52,1.1-.52,1.1Z"/><path class="cls-12" d="M418.78,292.31c.63.95,1.25.17,1.25.17,0,0,.75-1.14.11-1.09,0,0-.28-.54-.84-.19s-.52,1.1-.52,1.1Z"/><path class="cls-12" d="M417.16,290.62c.63.95,1.25.17,1.25.17,0,0,.75-1.14.11-1.09,0,0-.28-.54-.84-.19s-.52,1.1-.52,1.1Z"/><path class="cls-12" d="M404.92,318.77c.63.95,1.25.17,1.25.17,0,0,.75-1.14.11-1.09,0,0-.28-.54-.84-.19s-.52,1.1-.52,1.1Z"/><path class="cls-12" d="M397.99,321.74c.63.95,1.25.17,1.25.17,0,0,.75-1.14.11-1.09,0,0-.28-.54-.84-.19s-.52,1.1-.52,1.1Z"/><path class="cls-12" d="M391.21,319.96c.63.95,1.25.17,1.25.17,0,0,.75-1.14.11-1.09,0,0-.28-.54-.84-.19s-.52,1.1-.52,1.1Z"/><path class="cls-12" d="M395.28,318.77c.63.95,1.25.17,1.25.17,0,0,.75-1.14.11-1.09,0,0-.28-.54-.84-.19s-.52,1.1-.52,1.1Z"/><path class="cls-12" d="M408.16,306.3c.63.95,1.25.17,1.25.17,0,0,.75-1.14.11-1.09,0,0-.28-.54-.84-.19s-.52,1.1-.52,1.1Z"/><path class="cls-12" d="M415.54,302.56c.63.95,1.25.17,1.25.17,0,0,.75-1.14.11-1.09,0,0-.28-.54-.84-.19s-.52,1.1-.52,1.1Z"/><path class="cls-12" d="M412.96,305.45c.63.95,1.25.17,1.25.17,0,0,.75-1.14.11-1.09,0,0-.28-.54-.84-.19s-.52,1.1-.52,1.1Z"/><path class="cls-12" d="M416.35,309.92c.63.95,1.25.17,1.25.17,0,0,.75-1.14.11-1.09,0,0-.28-.54-.84-.19s-.52,1.1-.52,1.1Z"/><path class="cls-12" d="M416.35,305.45c.61.89,1.24.14,1.24.14,0,0,.76-1.1.13-1.04,0,0-.27-.51-.83-.17s-.53,1.06-.53,1.06Z"/><path class="cls-12" d="M254.64,341.47c.81,1.23,1.57.24,1.57.24,0,0,.92-1.46.12-1.4,0,0-.36-.7-1.06-.26s-.63,1.41-.63,1.41Z"/><path class="cls-12" d="M245.95,344.6c.81,1.23,1.57.24,1.57.24,0,0,.92-1.46.12-1.4,0,0-.36-.7-1.06-.26s-.63,1.41-.63,1.41Z"/><path class="cls-12" d="M279.92,339.54c.81,1.23,1.57.24,1.57.24,0,0,.92-1.46.12-1.4,0,0-.36-.7-1.06-.26s-.63,1.41-.63,1.41Z"/><path class="cls-12" d="M238.78,346.16c1.62,2.46,3.15.49,3.15.49,0,0,1.84-2.92.24-2.8,0,0-.72-1.39-2.12-.51s-1.27,2.83-1.27,2.83Z"/><path class="cls-12" d="M269.57,340.85c1.62,2.46,3.15.49,3.15.49,0,0,1.84-2.92.24-2.8,0,0-.72-1.39-2.12-.51s-1.27,2.83-1.27,2.83Z"/><path class="cls-12" d="M248.66,344.68c1.62,2.46,3.15.49,3.15.49,0,0,1.84-2.92.24-2.8,0,0-.72-1.39-2.12-.51s-1.27,2.83-1.27,2.83Z"/><path class="cls-12" d="M262.83,342.18c1.62,2.46,3.15.49,3.15.49,0,0,1.84-2.92.24-2.8,0,0-.72-1.39-2.12-.51-1.4.88-1.27,2.83-1.27,2.83Z"/><path class="cls-12" d="M282.14,341.08c1.62,2.46,3.15.49,3.15.49,0,0,1.84-2.92.24-2.8,0,0-.72-1.39-2.12-.51s-1.27,2.83-1.27,2.83Z"/><path class="cls-12" d="M259.1,337.49c.63.95,1.25.17,1.25.17,0,0,.75-1.14.11-1.09,0,0-.28-.54-.84-.19s-.52,1.1-.52,1.1Z"/><path class="cls-12" d="M259.91,334.06c.63.95,1.25.17,1.25.17,0,0,.75-1.14.11-1.09,0,0-.28-.54-.84-.19s-.52,1.1-.52,1.1Z"/><path class="cls-12" d="M262.02,335.8c.63.95,1.25.17,1.25.17,0,0,.75-1.14.11-1.09,0,0-.28-.54-.84-.19s-.52,1.1-.52,1.1Z"/><path class="cls-12" d="M268.06,342.69c.63.95,1.25.17,1.25.17,0,0,.75-1.14.11-1.09,0,0-.28-.54-.84-.19s-.52,1.1-.52,1.1Z"/><path class="cls-12" d="M243.57,344.11c.63.95,1.25.17,1.25.17,0,0,.75-1.14.11-1.09,0,0-.28-.54-.84-.19s-.52,1.1-.52,1.1Z"/><path class="cls-12" d="M262.02,339.03c.63.95,1.25.17,1.25.17,0,0,.75-1.14.11-1.09,0,0-.28-.54-.84-.19s-.52,1.1-.52,1.1Z"/><path class="cls-12" d="M275.32,342.69c.63.95,1.25.17,1.25.17,0,0,.75-1.14.11-1.09,0,0-.28-.54-.84-.19s-.52,1.1-.52,1.1Z"/><path class="cls-12" d="M277.62,341.38c.63.95,1.25.17,1.25.17,0,0,.75-1.14.11-1.09,0,0-.28-.54-.84-.19s-.52,1.1-.52,1.1Z"/><path class="cls-12" d="M273.7,340.29c.63.95,1.25.17,1.25.17,0,0,.75-1.14.11-1.09,0,0-.28-.54-.84-.19s-.52,1.1-.52,1.1Z"/><path class="cls-12" d="M251.89,339.87c.63.95,1.25.17,1.25.17,0,0,.75-1.14.11-1.09,0,0-.28-.54-.84-.19s-.52,1.1-.52,1.1Z"/><path class="cls-12" d="M255.65,337.23c.61.89,1.24.14,1.24.14,0,0,.76-1.1.13-1.04,0,0-.27-.51-.83-.17s-.53,1.06-.53,1.06Z"/><path class="cls-3" d="M380.41,245.32c.23,1.04,1.1.56,1.1.56,0,0,1.13-.76.51-.92,0,0-.06-.57-.71-.44s-.9.8-.9.8Z"/></g></svg>