<?xml version="1.0" encoding="UTF-8"?><svg id="Layer_1" xmlns="http://www.w3.org/2000/svg" width="500" height="500" viewBox="0 0 500 500"><defs><style>.cls-1{fill:#231f20;}.cls-2{fill:#b4bdcd;}.cls-3{fill:#667180;}</style></defs><g id="fish"><path class="cls-2" d="M351.35,194.61s-44.82,18.85-123.3,136.44c0,0-70.85,106.82-173.37,58.92,0,0-75.53-77.07,61.44-183.42,0,0,84.31-62.79,234.34-38.61l54.55,10s-33.11,2.73-53.65,16.68Z"/><path class="cls-1" d="M107.64,403.81c-17.85,0-35.81-4.18-53.6-12.49l-.25-.11-.19-.19c-.24-.24-23.66-24.63-20.99-64.09,2.72-40.23,30.51-81.14,82.57-121.57.24-.18,21.76-16.01,61.38-28.62,36.5-11.61,96.33-22.83,174.12-10.29l65.7,12.04-11.27.93c-.33.03-32.96,2.86-52.93,16.42l-.26.14c-.58.25-45.57,20.42-122.63,135.89-.18.27-18.23,27.19-48.65,47.83-17.91,12.15-36.55,19.8-55.4,22.74-5.85.91-11.72,1.37-17.61,1.37ZM55.57,388.72c23.01,10.7,46.27,14.32,69.16,10.77,18.4-2.86,36.62-10.33,54.16-22.21,29.96-20.31,47.73-46.8,47.91-47.06,76.43-114.51,120.5-135.47,123.83-136.93,13.95-9.43,33.23-13.76,44.66-15.61l-45.11-8.27c-77.09-12.42-136.39-1.34-172.55,10.15-39.19,12.45-60.41,28.04-60.62,28.19-51.31,39.84-78.7,79.99-81.39,119.31-2.48,36.3,17.83,59.36,19.96,61.66ZM351.35,194.61h0,0Z"/><path class="cls-3" d="M92.8,350.08s-17.97,9.86-30.28,27.7c-.11.16-1.56,2.54-2.29,3.83-1.8,3.17-4.01,7.25-4.68,8.88-.87.74-3.18,15.58,7.87,8.76,3.78-2.33,3.44-3.33,4.74-6.11,0,0,14.37-28.11,44.32-47.22,0,0,20.88-16.97-8.37-12.17,0,0-36.6,7.59-56.44,42.05,0,0-8.6,13.52-2.39,17.51,0,0,6.77,4.15,9.3-1.99,5.74-13.96,26.35-37.8,38.23-41.24Z"/><path class="cls-1" d="M58.5,402.56c-1.89,0-3.09-.92-3.84-1.96-.96-1.32-1.37-3.34-1.41-5.31-.39.24-.82.44-1.27.59-3.49,1.14-7.33-1.17-7.49-1.27-7.28-4.68.95-18.08,1.91-19.59,19.91-34.58,57.02-42.64,57.4-42.71,10.22-1.68,15.61-.96,17.05,2.24,2.04,4.55-5.83,11.26-7.43,12.56l-.14.1c-29.23,18.65-43.65,46.36-43.79,46.64-.23.49-.42.96-.58,1.39-.81,2.04-1.43,3.3-4.7,5.31-2.39,1.47-4.25,2.02-5.71,2.02ZM56.71,391.48c-.47,1.24-.98,6.18.64,7.66,1.2,1.09,3.83-.25,5.28-1.15,2.58-1.59,2.85-2.26,3.49-3.87.19-.47.4-.99.68-1.6.17-.33,14.9-28.69,44.79-47.8,3.74-3.06,7.23-7.36,6.52-8.95-.2-.43-1.78-2.49-13.77-.52-.3.06-36.13,7.88-55.38,41.32-2.05,3.24-6.92,12.91-2.88,15.5.75.45,3.18,1.55,4.97.96.93-.31,1.63-1.05,2.13-2.26,6.01-14.6,26.88-38.54,39.2-42.11l13.04-3.78-11.9,6.54c-.18.1-17.81,9.92-29.77,27.24-.13.2-1.51,2.47-2.23,3.72-1.8,3.17-3.96,7.17-4.59,8.71l-.14.34-.09.07Z"/><path class="cls-3" d="M79.13,279.83s-16.37,2.71-20.94,25.46,17.51,16.1,20.05,14.86c0,0,8.58-2.62,14.89-18.23,0,0,6.39-25.54-14-22.09Z"/><path class="cls-1" d="M68.77,323.5c-2.99,0-6.1-.61-8.51-2.47-3.88-3-5.07-8.39-3.54-16.03,4.72-23.49,21.44-26.53,22.16-26.65,5.71-.96,10.07.12,12.96,3.24,6.17,6.67,2.89,20.12,2.75,20.69l-.06.2c-6.17,15.28-14.57,18.67-15.72,19.07-1.2.55-5.49,1.96-10.03,1.96ZM79.38,281.31c-.63.11-15.42,2.9-19.72,24.28-1.29,6.43-.47,10.83,2.43,13.07,4.91,3.79,14.33.72,15.5.15l.22-.09c.07-.02,7.99-2.72,13.89-17.26.27-1.16,2.77-12.62-2.06-17.84-2.15-2.32-5.6-3.1-10.25-2.31h0ZM79.13,279.83h0,0Z"/><path class="cls-3" d="M63.62,308.82s5.69-10.44,22.9-15.32"/><path class="cls-1" d="M63.62,308.82c3.27-9.11,13.56-14.88,22.9-15.32-1.02.68-2.08,1.2-3.1,1.77-7.11,3.84-13.91,7.92-19.8,13.55h0Z"/><path class="cls-1" d="M77.47,310.66c-6.51-5.2-7.4-15.45-4-22.67.89,7.71,1.21,15.3,4,22.67h0Z"/><path class="cls-3" d="M78.09,239.15s1.37-41.96,17.88-54.37c.24-.18-.41.41,0,0,.64-.63,13.79-9.97,6.33,8.01,0,0,11.7-23.78,52.76-38.19,0,0,20.77-7.29-11.95,24.02,0,0,38.16-23.56,49.82-5.51-9.42,4.12-63.55,10.94-114.83,66.05Z"/><path class="cls-1" d="M76.46,243.1l.13-4c.06-1.74,1.58-42.83,18.47-55.52l1.16-.87.03.03c2.02-1.35,5.86-3.46,8.24-1.86,1.09.73,1.62,1.94,1.6,3.71,6.81-8.35,21.25-21.85,48.47-31.41,1.45-.51,6.32-1.96,8.02.81,1.31,2.14.79,6.09-11.12,18.44,3.37-1.61,7.42-3.35,11.71-4.77,15.11-4.99,25.83-3.4,31.01,4.62l.96,1.48-1.62.71c-1.63.71-4.36,1.46-8.14,2.49-19.01,5.2-63.54,17.37-106.2,63.21l-2.73,2.93ZM95.7,186.92c-11.82,10.43-15.05,37.8-15.86,48.19,42.36-43.99,85.92-55.9,104.76-61.05,2.37-.65,4.4-1.2,5.91-1.69-11.97-13.62-46.26,7.29-46.62,7.51l-12.08,7.46,10.26-9.82c19.63-18.79,18.03-21.85,17.96-21.97-.31-.38-2.48-.24-4.47.45-20.86,7.32-33.87,17.12-41.1,24.04-7.83,7.5-10.78,13.34-10.81,13.4l-2.73-1.24c3.17-7.66,1.92-8.83,1.91-8.84-.78-.56-4.36,1.27-5.72,2.41-.07.08-.16.17-.25.25l-1.1.95-.05-.05Z"/><path class="cls-3" d="M95.86,222.2c-.26,2.87,2.01-16.6,32.24-42.26"/><path class="cls-1" d="M97.36,222.34c-.01.07-.02.2-.02.09.04-.13-.17-.82-.41-.98.25-.09-1.46-.94-2.15,0-.45.61-.14.2-.25.35l-.02.05c-.05.11-.03.07-.02.05,1.41-4.25,3.52-8.27,5.87-12.06,7.3-11.59,17.17-21.36,27.74-29.89-10.04,9.05-19.23,19.2-25.8,31.03-2.08,3.8-3.87,7.75-5.01,11.92-.01.03,0,.04-.06.17l-.03.07c-.11.16.2-.25-.26.37-.7.94-2.41.1-2.17,0-.25-.2-.46-.9-.42-1.06-.18-2.32,3.13-2.41,3-.11h0Z"/><path class="cls-3" d="M106.61,213.18s11.52-15.43,38.33-29.55"/><path class="cls-1" d="M105.41,212.28c10.92-12.37,24.91-21.33,39.53-28.65-1.75,1.04-3.51,2.05-5.23,3.11-8.58,5.32-16.72,11.42-23.94,18.47-2.87,2.82-5.69,5.82-8,8.94-1.23,1.6-3.64-.27-2.35-1.86h0Z"/><path class="cls-3" d="M356.31,198.75s40.04,35.73,66.56,17.95c0,0,6.16-3.62-16.41-16.98,0,0,46.55,16.29,77.2.57,0,0-13.82-46.12-77.07-31.74,0,0,39.36-13.44,32.31-22.33,0,0-19.04-18.64-88.44,21.72,0,0,50.92,9.69,54.55,10,0,0-27.34-.67-53.65,16.68l4.96,4.14Z"/><path class="cls-1" d="M405.85,223.13c-8.03,0-17.09-2.47-26.88-7.4-13.19-6.64-23-15.28-23.64-15.85l-6.49-5.42,1.68-1.11c15.78-10.4,31.76-14.43,42.31-15.97-15.73-2.85-41.18-7.69-42.67-7.98l-3.95-.75,3.47-2.02c69.59-40.47,89.43-22.29,90.24-21.5l.13.14c1.11,1.4,1.44,3.04.94,4.72-1.55,5.29-11.82,10.85-20.7,14.77,16.16-1.58,34.79.5,49.5,13.11,11.56,9.91,15.13,21.48,15.28,21.97l.36,1.2-1.11.57c-8.93,4.58-25.02,9.3-50.98,5.77-6.77-.92-12.84-2.23-17.54-3.41,6.26,4.51,9.32,8.17,9.32,11.11,0,1.49-.81,2.5-1.51,2.91-5.11,3.43-11.09,5.14-17.78,5.14ZM353.88,194.76l3.43,2.87c.31.28,25.56,22.5,48.57,22.5,5.65,0,11.17-1.34,16.15-4.68.04-.04.13-.17.1-.51-.1-1.05-1.58-5.14-16.44-13.94l1.26-2.71c.45.16,45.12,15.49,74.84,1.23-1.21-3.13-5.18-11.92-14.05-19.47-14.48-12.33-35.52-15.81-60.83-10.05l-.82-2.88c11.5-3.93,30.37-12.28,32.04-17.97.21-.71.1-1.31-.35-1.92-1.16-.96-20.49-15.48-83.08,19.98,18.28,3.47,47.8,9,50.41,9.22l-.16,2.99c-.26,0-26.03-.42-51.08,15.34ZM422.07,215.43s-.02.01-.04.03c.03-.02.04-.03.04-.03Z"/><path class="cls-1" d="M359.01,188.7c16.09,3.7,32.37,9.28,45.12,20.06-3.28-2.51-6.81-4.64-10.46-6.51-7.38-3.61-15.19-6.23-23.15-8.19-3.98-.97-8.03-1.82-12.03-2.41-2-.35-1.49-3.31.53-2.95h0Z"/><path class="cls-1" d="M372.08,170.79c7.77-3.51,15.57-6.87,23.46-10.08,7.91-3.05,15.8-6.54,24.18-8.05-2.08.45-4.1,1.08-6.08,1.83-13.84,5.33-27.07,12.21-40.23,18.99-1.8.92-3.17-1.81-1.32-2.69h0Z"/><path class="cls-1" d="M152.12,337.65c-1-10.72-7.12-19.64-17.54-22.75-5.99-2.01-12.25-2.33-18.63-2.65,4.19-1.03,8.54-1.47,12.93-1.17,14.5.7,25.69,11.7,23.25,26.57h0Z"/><path class="cls-1" d="M160.04,329.52c-2.17-11.89-8.86-21.82-21.01-24.82-3.73-1.02-7.67-1.48-11.7-1.79,18.12-4.36,34.34,7.42,32.71,26.61h0Z"/><path class="cls-1" d="M167.29,324.36c-.23-8.67-3.56-17.01-11.51-21.14-2.48-1.38-5.21-2.44-8.06-3.47,13.92-.98,24.25,11.15,19.57,24.61h0Z"/><path class="cls-1" d="M100.26,244.84c15.21-13.69,26.34-12.07,15.07,9.39,0,0-2.43-1.68-2.43-1.68,4.51-4.58,8.91-9.5,14.91-12.18,7.88-2.12,2.24,9.67.6,12.67.71-2.7,1.5-5.41,1.8-8.09.07-.9.18-1.87-.16-2.65-.23-.48-.77-.23-1.47.04-2.93,1.52-5.31,3.96-7.75,6.28-3.73,3.57-9.54,10.2-13.04,14.11,0,0,4.89-9.85,4.89-9.85,1.33-2.68,2.67-5.37,3.62-8.13.58-1.83,1.39-3.92.83-5.66-1.97-3.16-14.16,4.32-16.86,5.75h0Z"/><path class="cls-1" d="M120.68,231.66c1.04-1.81,2.41-3.35,3.98-4.71,1.82-1.45,3.53-2.73,6.13-2.81,3.3.03,4.12,3.7,3.54,6.24-.39,2.11-1.17,4.02-2.27,5.78-.1-2.08.01-4.07-.08-5.93-.09-1.1-.13-2.04-.61-2.8-.22-.22-.25-.28-.67-.3-3.53.48-6.65,3.08-10.02,4.53h0Z"/><path class="cls-1" d="M257.75,172.97c4.61.12,22.03,1.96,16.35,9.73-4.04,4.06-9.78,5.59-14.99,7.38,0,0-.53-2.91-.53-2.91,2.91-.11,5.77-.18,8.67-.04,3.64.27,7.58.25,11.01,2.05,5.67,4.33-7.69,8.25-10.59,9.11,1.05-.61,12.23-6.27,9.51-7.28-3.07-1.18-6.62-.99-10-1.09-5.37-.07-15.04.65-20.5.98,0,0,11.53-3.67,11.53-3.67,3.47-1.23,13.55-3.96,14.64-7.4-.77-3.46-11.76-5.87-15.11-6.87h0Z"/><path class="cls-1" d="M280.92,177.81c3.83-1.19,14.52-1.14,12.68,5.19-1.82,3.57-6.02,5.05-9.66,5.89,2.24-2.33,4.93-3.99,6.71-6.53.12-.23.3-.61.21-.77-.19-.41-.96-.82-1.49-1.07-2.69-1.17-5.55-1.72-8.45-2.72h0Z"/><path class="cls-1" d="M165.11,205.72c2.77-2.24,5.76-4.14,8.9-5.81,3.68-1.86,7.46-3.84,11.76-3.92,2.5,0,4.04,1.98,3.32,4.4-.63,2.08-1.71,3.53-2.81,4.98-2.22,2.85-4.77,5.31-7.55,7.53,1.85-3.04,3.87-5.91,5.62-8.85.88-1.68,2.04-3.35,2-4.98-1.73-.41-4.51.59-6.51,1.21-4.96,1.67-9.71,3.72-14.72,5.43h0Z"/><path class="cls-1" d="M189.28,191.81c3.68-2.4,18.72-8.19,19.33-.59-.08,2.12-1.55,3.89-2.72,5.24-1.93,2.09-4.12,3.79-6.53,5.21,2.09-3.3,5.04-6.31,6.27-9.85.13-.49.06-.8,0-.82-1.14-.79-2.74-.56-4.31-.55-4.03.25-7.93.99-12.04,1.36h0Z"/><path class="cls-1" d="M253.67,227.54c3.43-2.99,21.79-14.8,24.07-7.28.61,4.87-7.01,11.63-10.46,14.46,2.5-4.36,6.13-8.51,7.59-13.17.05-.3.06-.57.02-.66-.05-.08.04.06-.04,0-1.87-.41-4.46.61-6.47,1.21-4.96,1.67-9.71,3.72-14.72,5.43h0Z"/><path class="cls-1" d="M277.84,213.62c3.68-2.4,18.72-8.19,19.33-.59-.08,2.12-1.55,3.89-2.72,5.24-1.93,2.09-4.12,3.79-6.53,5.21,2.09-3.3,5.04-6.31,6.27-9.85.13-.49.06-.8,0-.82-1.14-.79-2.74-.56-4.31-.55-4.03.25-7.93.99-12.04,1.36h0Z"/><path class="cls-1" d="M417.53,181.1c14.11-1,29.31,1.34,40.53,10.46-2.91-2-5.99-3.71-9.28-4.92-6.56-2.42-13.56-3.36-20.52-3.35-3.48.02-7.02.25-10.36.79-2.02.27-2.42-2.73-.37-2.98h0Z"/><path class="cls-1" d="M147.79,279.74c11.86-20.99,41.21-62.27,69.3-50.99,10.67,4.33,23.23,20.26,21.44,32.2-3.94,22.57-48.46,25.7-66.87,26.12-.54,0-2.09.03-2.64.01-.04,0-.21.02-.1-.03,0,0,.41.02.41.02h-.41s-.03.04-.06-.02c.66-.05,2.1-.16,2.79-.21,17.57-1.62,44.3-4.86,58.09-16.2,7.05-5.82,7.65-13.96,3.44-21.75-9.07-16.57-23.08-24.71-41.03-15.18-18.46,10.21-32.67,28.75-44.36,46.02h0Z"/><path class="cls-1" d="M156.11,281.93c11.64-15.22,29.43-29.26,47.79-35.15-16.9,9.88-32.81,22.56-47.79,35.15h0Z"/><path class="cls-1" d="M165.03,280.83c13.38-8.09,35.63-17.02,51.35-15.23-17.73,2.93-34.16,10.23-51.35,15.23h0Z"/></g></svg>