<?xml version="1.0" encoding="UTF-8"?><svg id="Layer_1" xmlns="http://www.w3.org/2000/svg" width="200" height="100" viewBox="0 0 200 100"><defs><style>.cls-1{fill:#740000;}.cls-2{fill:#df0224;}</style></defs><path class="cls-1" d="M25.51,72.05c.35,5.48.7,10.27,1.14,13.2,1.1,7.44,2.15,8.33,2.31,9.45.3,2.03-2.43,3.81-5.37,4.25-3.83.56-9.15-1.07-10.24-8.52-1.41-9.59-1.75-32.24-1.02-47.67-2.46,1.28-4.15,2.34-4.71,2.42s-1.5,0-1.75-1.7c-.73-4.96,11.49-13.56,24.91-15.53,11.39-1.68,23.95,2.24,25.78,14.64,2.62,17.82-11.7,26.96-28.62,29.45-.56.08-1.48.1-2.42,0ZM43.02,47.01c-.88-5.98-5.05-11.59-14.86-10.14-1.35.2-2.69.51-3.91.81.17,6.66.4,17.57.84,27.65.79-.12,1.56-.35,2.58-.49,7.78-1.15,16.9-7.33,15.35-17.81Z"/><path class="cls-1" d="M77.59,79.14c1.59-.92,3.14-1.38,4.83-1.63,2.71-.4,5.72-.27,10.01-.9,6.54-.96,6.51-4.3,7.75-4.48,1.8-.27,3.04,3.47,3.28,5.05.61,4.17-.65,10.47-8.32,11.6-6.32.93-12.74-.43-16.8.17-3.83.56-5.17,1.68-7.65,2.05-1.58.23-5.5-.57-6.6-8.02-1.53-10.38-.36-25.18-2.92-42.55-1.38-9.36-3.02-12.69-3.27-14.38-.18-1.24,1.05-2.23,3.31-2.56,8.01-1.18,13.49,2.39,14.27,7.7.98,6.65.05,33.98,2.1,47.97Z"/><path class="cls-1" d="M106.14,77.36c-2.26-15.34,12.81-38.99,12.07-58.12-.07-2.06.42-4.21,3.24-4.62,8.8-1.29,16.52,1.83,19.73,11.15,1.83,5.38,2.93,10.51,4.25,17.12,2.62-.96,4.12-1.76,5.02-1.89,1.35-.2,2.1.96,2.35,2.65.3,2.03-.24,4.64-1.58,6.46-.98,1.18-2.22,2.17-3.71,2.97.17,1.13.43,2.13.72,3.35,3.6,16.64,9.86,17.68,10.09,19.26.23,1.58-1.71,4.05-5.99,4.68-11.05,1.63-14.71-6.02-17.18-21.21-.15-1.02-.41-2.01-.56-3.03-4.19.5-10.67,1.11-15.47,1.35-.48,4.57-.59,9.31.12,14.16,1.1,7.44,2.92,8.9,3.16,10.48.23,1.58-1.46,2.63-3.37,2.92-5.75.85-11.79-.23-12.88-7.67ZM120.4,49.79c4.83-.83,9.07-1.79,12.5-2.76-2.6-12.98-5.16-20.21-7.66-22.26-.92,8.66-3.28,16.84-4.84,25.02Z"/><path class="cls-1" d="M170.56,46.9c-8.84-8.38-19.49-21.21-20.28-26.63-.76-5.19,6.47-10.86,9.29-11.28,3.95-.58,1.52,1.74,6.41,10.69,4.27,7.9,9.76,13.89,13.34,17.05,4.98-7.65,7.26-14.9,6.13-22.56-.5-3.38-1.89-5.02-2.06-6.15-.22-1.47,1.36-2.5,3.84-2.87,5.3-.78,11.7,1.96,12.56,7.83,1.2,8.12-7.37,19.64-15.77,30.67.17,5.85.23,11.72.92,16.46,1.26,8.57,3.39,8.95,3.66,10.75.27,1.8-2.95,4.24-6.89,4.82-3.61.53-8.82-.43-10.2-9.79-.88-5.98-.92-12.54-.95-18.99Z"/><path class="cls-2" d="M19.77,67.97c.35,5.48.7,10.27,1.14,13.2,1.1,7.44,2.15,8.33,2.31,9.45.3,2.03-2.43,3.81-5.37,4.25-3.83.56-9.15-1.07-10.24-8.52-1.41-9.59-1.75-32.24-1.02-47.67-2.46,1.28-4.15,2.34-4.71,2.42s-1.5,0-1.75-1.7c-.73-4.96,11.49-13.56,24.91-15.53,11.39-1.68,23.95,2.24,25.78,14.64,2.62,17.82-11.7,26.96-28.62,29.45-.56.08-1.48.1-2.42,0ZM37.28,42.92c-.88-5.98-5.05-11.59-14.86-10.14-1.35.2-2.69.51-3.91.81.17,6.66.4,17.57.84,27.65.79-.12,1.56-.35,2.58-.49,7.78-1.15,16.9-7.33,15.35-17.81Z"/><path class="cls-2" d="M71.85,75.05c1.59-.92,3.14-1.38,4.83-1.63,2.71-.4,5.72-.27,10.01-.9,6.54-.96,6.51-4.3,7.75-4.48,1.8-.27,3.04,3.47,3.28,5.05.61,4.17-.65,10.47-8.32,11.6-6.32.93-12.74-.43-16.8.17-3.83.56-5.17,1.68-7.65,2.05-1.58.23-5.5-.57-6.6-8.02-1.53-10.38-.36-25.18-2.92-42.55-1.38-9.36-3.02-12.69-3.27-14.38-.18-1.24,1.05-2.23,3.31-2.56,8.01-1.18,13.49,2.39,14.27,7.7.98,6.65.05,33.98,2.1,47.97Z"/><path class="cls-2" d="M100.4,73.27c-2.26-15.34,12.81-38.99,12.07-58.12-.07-2.06.42-4.21,3.24-4.62,8.8-1.29,16.52,1.83,19.73,11.15,1.83,5.38,2.93,10.51,4.25,17.12,2.62-.96,4.12-1.76,5.02-1.89,1.35-.2,2.1.96,2.35,2.65.3,2.03-.24,4.64-1.58,6.46-.98,1.18-2.22,2.17-3.71,2.97.17,1.13.43,2.13.72,3.35,3.6,16.64,9.86,17.68,10.09,19.26.23,1.58-1.71,4.05-5.99,4.68-11.05,1.63-14.71-6.02-17.18-21.21-.15-1.02-.41-2.01-.56-3.03-4.19.5-10.67,1.11-15.47,1.35-.48,4.57-.59,9.31.12,14.16,1.1,7.44,2.92,8.9,3.16,10.48.23,1.58-1.46,2.63-3.37,2.92-5.75.85-11.79-.23-12.88-7.67ZM114.66,45.71c4.83-.83,9.07-1.79,12.5-2.76-2.6-12.98-5.16-20.21-7.66-22.26-.92,8.66-3.28,16.84-4.84,25.02Z"/><path class="cls-2" d="M164.83,42.82c-8.84-8.38-19.49-21.21-20.28-26.63-.76-5.19,6.47-10.86,9.29-11.28,3.95-.58,1.52,1.74,6.41,10.69,4.27,7.9,9.76,13.89,13.34,17.05,4.98-7.65,7.26-14.9,6.13-22.56-.5-3.38-1.89-5.02-2.06-6.15-.22-1.47,1.36-2.5,3.84-2.87,5.3-.78,11.7,1.96,12.56,7.83,1.2,8.12-7.37,19.64-15.77,30.67.17,5.85.23,11.72.92,16.46,1.26,8.57,3.39,8.95,3.66,10.75.27,1.8-2.95,4.24-6.89,4.82-3.61.53-8.82-.43-10.2-9.79-.88-5.98-.92-12.54-.95-18.99Z"/></svg>