<?xml version="1.0" encoding="UTF-8"?><svg id="Layer_1" xmlns="http://www.w3.org/2000/svg" width="500" height="500" viewBox="0 0 500 500"><defs><style>.cls-1{fill:#231f20;}.cls-2{fill:#fff;}.cls-3{fill:#fac9bb;}.cls-4{fill:#fac8bc;}.cls-5{fill:#a6a8ab;}</style></defs><g id="mouse"><path class="cls-5" d="M183.53,183.59c-22.28-16.55-32.11,10.11-28.89,18.16l14.15,17.72,29.35-20.59-14.6-15.28Z"/><path class="cls-1" d="M168.49,221.51l-15.17-18.99-.08-.21c-2.01-5.04.38-16.66,7.81-22.38,4.49-3.46,12.19-5.84,23.37,2.46l.19.17,15.81,16.54-31.93,22.41ZM155.95,201l13.12,16.43,26.77-18.78-13.31-13.93c-7.61-5.62-14.41-6.45-19.65-2.42-5.99,4.61-8.42,14.47-6.93,18.69Z"/><path class="cls-4" d="M342.13,305.13s66.13,7.27,82.59,19.92c0,0,20.37,7.81,16.18,21.27s-28.74,13.19-28.74,13.19c0,0-76.77,3.25-80.64,2.96-4.78-.36-27.54-.77-37.23-.8-2.64,0-5.27.17-7.87.55-9.34,1.36-31.81,5.06-36.65,9.94,0,0,23.72-8.08,66.13-3.77s105.75-1.62,105.75-1.62c0,0,30.41-5.65,30.13-20.73-.28-15.08-9.49-20.73-9.49-20.73,0,0-11.44-13.73-47.71-20.19s-46.88-27.19-46.88-27.19l-5.58,27.19Z"/><path class="cls-1" d="M244.21,375.65l4.5-4.53c4.96-5,25.62-8.64,37.5-10.37,2.66-.39,5.33-.57,8.09-.57,9.98.03,32.63.45,37.34.8,2.99.22,53.94-1.84,80.46-2.96.28,0,23.57.1,27.37-12.14,3.72-11.96-15.1-19.35-15.29-19.42l-.2-.08-.17-.13c-15.94-12.25-81.18-19.55-81.84-19.62l-1.64-.18,6.77-32.99,1.95,3.8c.1.2,10.79,20.16,45.8,26.4,34.58,6.16,46.89,18.79,48.45,20.53,1.47.99,9.72,7.22,9.99,21.84.3,16.16-30.07,21.99-31.36,22.23l-.13.02c-.63.06-63.97,5.89-106.04,1.61-41.6-4.22-65.26,3.62-65.49,3.7l-6.04,2.06ZM291.46,365.62c7.31,0,15.52.36,24.59,1.29,41.15,4.18,102.93-1.38,105.39-1.61.75-.15,7.86-1.58,14.83-4.62,6.47-2.82,14.15-7.65,14.02-14.6-.26-14-8.43-19.27-8.78-19.48l-.2-.13-.16-.19c-.11-.13-11.66-13.41-46.82-19.68-28.35-5.05-41.28-18.55-45.88-24.78l-4.51,22c10.51,1.23,65.96,8.19,81.54,19.91,1.03.42,5.62,2.37,9.85,5.73,6.5,5.17,8.93,11.16,7.02,17.3-4.47,14.36-29.13,14.26-30.19,14.25-3.06.13-76.82,3.26-80.73,2.96-4.65-.35-27.18-.76-37.12-.8-2.58,0-5.14.17-7.65.54-6.83.99-12.93,2.08-18.09,3.21,6.21-.75,13.87-1.3,22.91-1.3Z"/><path class="cls-4" d="M250.66,371.5s-8.68,4.69-13.85,9.69"/><path class="cls-1" d="M251.37,372.82c-5.1,2.3-10.14,4.9-14.56,8.37,3.81-4.27,8.41-7.78,13.14-11.01,0,0,1.43,2.64,1.43,2.64h0Z"/><path class="cls-4" d="M327.03,329.69s7.31,6.54-5.56,9.19c-12.87,2.65-23.21,1.27-23.21,1.27,0,0-32.12-3.93-38.83-2.76s-25.85,2.76-25.85,2.76c-.77-2.44,3.85-5.52,3.85-5.52l-3.85.53c0-6.79,4.95-9.23,4.95-9.23,0,0,3.86-1.66,6.82-.42,3.62,1.51,46.09,3.1,46.09,3.1l32.56-1.05,3.03,2.14Z"/><path class="cls-1" d="M305.3,342.02c-4.3,0-7.01-.35-7.23-.38-11.02-1.35-33.24-3.66-38.38-2.77-6.7,1.17-25.2,2.71-25.98,2.78l-1.19.1-.36-1.14c-.43-1.35.07-2.69.87-3.85l-.94.13v-1.72c0-7.64,5.55-10.46,5.79-10.58.25-.11,4.55-1.93,8.06-.46,2.46,1.02,29.2,2.37,45.52,2.98l33.01-1.07,3.58,2.54c.13.12,3.3,3,2.41,6.3-.71,2.63-3.54,4.42-8.67,5.48-6.45,1.33-12.23,1.67-16.48,1.67ZM263.17,335.69c10.75,0,34.13,2.84,35.27,2.98.12.01,10.28,1.31,22.73-1.25,3.68-.76,6.01-1.97,6.38-3.31.33-1.21-.92-2.73-1.46-3.24l-2.54-1.79-32.11,1.04h-.05c-7.14-.27-42.93-1.68-46.61-3.21-1.93-.81-4.74.03-5.65.42-.08.04-3.22,1.71-3.91,6.12l8.46-1.17-5.41,3.62c-1.08.72-2.19,1.75-2.8,2.6,5.08-.44,18.42-1.65,23.71-2.57.93-.16,2.31-.23,4-.23Z"/><path class="cls-4" d="M126.81,314.16s-7.66-3.33-13.64-2.9c-.76.06-1.5.23-2.22.47-1.47.5-4.19,1.51-5.25,2.42,0,0,4.39,3.25,6.94,3.25s14.17-3.25,14.17-3.25Z"/><path class="cls-1" d="M112.64,318.91c-2.96,0-7.34-3.18-7.83-3.55l-1.52-1.12,1.43-1.22c.95-.81,2.88-1.72,5.74-2.7.9-.31,1.75-.49,2.6-.55,6.26-.45,14.02,2.87,14.35,3.02l3.87,1.68-4.07,1.14c-1.21.34-11.89,3.31-14.57,3.31ZM108.57,314.26c1.48.88,3.12,1.65,4.07,1.65,1.19,0,5.25-.95,9.09-1.94-2.52-.73-5.71-1.41-8.46-1.21-.58.04-1.19.17-1.84.4-1.09.37-2.07.75-2.86,1.1Z"/><path class="cls-5" d="M179.92,204.58s-61.17-22.7-110.19,56.76c0,0-5.49,25.73,20.78,18.54,0,0,14.9,9.08,45.88,7.19,0,0,5.7-1.63,11.53,4.21,5.83,5.84,36.99,15.8,36.99,15.8,0,0,44.64,6.91,52.85,4.88,0,0,9.61,9.91,32.09,7.4,0,0,27.72,28.9,79.21,1.99,6.77-3.54,29.63-21.51,18.06-49.55,0,0-11.29-17.97-16.08-32.94s-16.93-43.29-54.17-54.45c-37.24-11.16-70.25,1.91-70.25,1.91,0,0-30.19,12.25-39.78,19.87-9.59,7.62-6.92-1.6-6.92-1.6Z"/><path class="cls-1" d="M307.18,334.28c-5.72,0-11.58-.72-17.44-2.41-11.65-3.37-18.51-9.18-20.42-10.96-19.59,1.99-29.53-5.2-32.01-7.35-10.08,1.54-50.84-4.73-52.62-5.01l-.23-.05c-1.29-.41-31.58-10.14-37.6-16.17-5.08-5.09-9.87-3.88-10.07-3.82l-.31.05c-28.13,1.71-43.11-5.42-46.18-7.08-8.14,2.11-14.23,1.33-18.1-2.32-6.43-6.07-4.05-17.65-3.94-18.14l.05-.25.14-.22c14.13-22.91,38.52-51.72,74.46-58.86,21.59-4.29,36.89,1.25,37.53,1.48l1.31.49-.39,1.34c-.29,1.02-.37,2.3-.19,2.7,0,0,.01,0,.02,0,.31,0,1.56-.19,4.71-2.69,9.65-7.67,38.91-19.59,40.15-20.09.35-.14,33.94-13.13,71.25-1.95,27.46,8.23,46.03,26.88,55.17,55.43,4.68,14.62,15.81,32.42,15.92,32.6l.12.23c11.54,27.97-10.22,46.99-18.75,51.45-11.05,5.77-26.26,11.62-42.58,11.62ZM270.43,317.77l.51.54c.07.07,6.92,7.06,19.8,10.73,11.9,3.4,31.56,4.59,57.63-9.03,7.89-4.12,27.99-21.69,17.41-47.53-1.04-1.67-11.52-18.64-16.17-33.17-8.82-27.55-26.71-45.54-53.17-53.47-36.28-10.87-68.95,1.74-69.27,1.86-.29.12-30.09,12.25-39.4,19.65-3.97,3.15-6.52,4.03-8.28,2.85-1.52-1.02-1.53-3.14-1.32-4.61-4-1.18-17.43-4.43-34.85-.93-34.67,6.97-58.37,34.91-72.18,57.22-.28,1.59-1.64,10.61,3.12,15.1,3.15,2.97,8.48,3.46,15.85,1.44l.62-.17.55.34c.14.09,14.91,8.78,44.87,6.98,1.13-.26,6.96-1.23,12.82,4.64,4.55,4.56,27.62,12.62,36.28,15.39,12.43,1.92,45.66,6.49,52.15,4.88l.84-.21.6.62c.09.09,9.48,9.34,30.85,6.95l.74-.08Z"/><path class="cls-5" d="M167.34,211.37c5.37-5.59,11.57-16.95,16.74-29.08,7.14-16.74,26.62-.77,30.33,9.12,2.25,5.99,11.03,28.7-23.54,39.53"/><path class="cls-1" d="M191.33,232.38l-.9-2.86c11.84-3.71,19.6-9.19,23.06-16.28,4.25-8.71.85-17.77-.43-21.17l-.04-.12c-2.24-5.96-11.48-15.27-19.19-15.44-.07,0-.14,0-.2,0-3.6,0-6.34,2.15-8.15,6.38-5.75,13.48-11.96,24.24-17.04,29.53l-2.16-2.08c4.84-5.03,10.83-15.47,16.44-28.63,2.95-6.92,7.71-8.27,11.18-8.2,9.34.21,19.39,10.6,21.94,17.39l.04.12c1.41,3.74,5.14,13.67.32,23.55-3.84,7.86-12.2,13.86-24.86,17.83Z"/><path class="cls-3" d="M209.3,209.04s-2.89,14.25-19.2,15.96-7.33-19.81-7.33-19.81l5.11-15.17s2.57-9.99,11.99-4.86c6.88,3.75,8.88,10.39,8.88,10.39,0,0,2.66,5.25.56,13.5Z"/><path class="cls-1" d="M188.33,226.6c-3.44,0-6-1.1-7.64-3.29-4.41-5.92.26-17.64.67-18.64l5.08-15.08c.17-.61,1.52-5.08,5.39-6.76,2.54-1.1,5.48-.76,8.75,1.02,6.9,3.76,9.23,10.16,9.56,11.15.42.9,2.68,6.32.62,14.4-.24,1.03-3.83,15.34-20.5,17.1-.67.07-1.31.11-1.92.11ZM194.92,185.2c-.67,0-1.3.12-1.87.37-2.72,1.17-3.71,4.79-3.72,4.83l-.03.1-5.14,15.27c-1.28,3.06-3.95,11.86-1.05,15.75,1.24,1.67,3.54,2.34,6.84,2,14.98-1.57,17.78-14.23,17.89-14.77l.02-.07c1.93-7.53-.42-12.4-.44-12.45l-.1-.24c-.02-.06-1.94-6.12-8.16-9.5-1.57-.85-2.98-1.28-4.23-1.28Z"/><path class="cls-5" d="M196.55,301.06c-4.12,20.89-14.61,20.12-14.61,20.12,0,0-25.64.64-42.64,4.49-17,3.85-31.09,3.2-31.09,3.2,1.2-4.61,6.78-6.15,6.78-6.15l-10.1-.77c5.98-10.77,23.38-9.23,23.38-9.23,5.71-4.23,16.07-4.74,16.07-4.74,18.47-1.92,23.46-6.54,23.46-6.54"/><path class="cls-1" d="M110.8,330.42c-1.58,0-2.51-.04-2.66-.05l-1.85-.08.46-1.79c.53-2.04,1.74-3.56,3.06-4.67l-7.37-.56,1.14-2.05c5.82-10.48,21.08-10.21,24.26-10.03,6.07-4.15,16-4.69,16.43-4.71,17.42-1.82,22.48-6.11,22.52-6.16l2.02,2.21c-.22.2-5.57,4.98-24.32,6.93-.18.01-10.06.55-15.34,4.46l-.46.34-.57-.05c-.15-.01-14.14-1.12-20.54,6.44l16.08,1.23-8.3,2.29s-3.16.92-4.84,3.24h.04c4.64,0,15.75-.35,28.39-3.2,16.95-3.83,42.68-4.52,42.94-4.52h.07s.07,0,.07,0c.07,0,2.27.08,4.95-2.09,2.58-2.09,6.08-6.7,8.08-16.83l2.94.58c-4.17,21.14-14.85,21.38-16.1,21.34-1.3.04-26,.76-42.3,4.45-12.86,2.91-23.94,3.29-28.83,3.29Z"/><path class="cls-3" d="M72.97,266.38c-2.14,1.43-5,1.62-7.29.42-2-1.05-3.52-3.15-.65-7.31,5.3-7.67,9.45,1.11,9.45,1.11,0,0,2.03,3.41-1.51,5.78Z"/><path class="cls-1" d="M68.94,269.08c-1.37,0-2.74-.32-3.96-.96-1.55-.81-2.55-2-2.9-3.42-.43-1.76.14-3.8,1.71-6.07,1.85-2.68,3.91-3.95,6.05-3.77,3.5.29,5.61,4.32,5.96,5.04.94,1.64,1.69,5.27-2,7.73h0c-1.45.97-3.16,1.46-4.86,1.46ZM69.46,257.84c-1.22,0-2.41,1.34-3.2,2.5-1.04,1.51-1.48,2.77-1.27,3.65.14.57.61,1.07,1.38,1.48,1.78.94,4.04.81,5.75-.34,2.29-1.53,1.19-3.54,1.05-3.77l-.07-.13c-.4-.84-1.91-3.26-3.53-3.39-.04,0-.09,0-.13,0Z"/><path class="cls-1" d="M272.27,323.28c-12.22-9.15-15.52-25.94-14.39-40.34.45-6.8,1.9-13.65,4.83-19.83,3.4-6.84,9.51-12.96,17.33-14.06-7.18,1.29-12.91,6.82-15.99,13.22-.84,1.53-1.45,3.32-2.07,4.93-1.01,3.39-1.87,6.97-2.19,10.48-1.4,12.65.09,26.34,7.72,36.82,1.77,2.3,3.9,4.64,6.32,6.21,0,0-1.56,2.57-1.56,2.57h0Z"/><path class="cls-1" d="M90.42,278.37c4.44-.66,8.97-1.94,12.85-4.28,1.53-1.15,4.96-.85,7.18-.52-2.17.06-4.96-.02-6.58,1.33-3.76,3.06-8.23,5.03-12.87,6.41,0,0-.58-2.94-.58-2.94h0Z"/><path class="cls-1" d="M154.73,276.83c3.13-2.49,6.18-3.9,8.07-7.46,1.08,4.4-4.07,7.91-8.07,7.46h0Z"/><path class="cls-1" d="M164.83,273.05c2.02-.34,1.89-5.15,2.19-6.84.29-2.68.45-5.34,1.17-7.99.43,1.34.71,2.69.81,4.06.24,3.42.15,7.32-2.11,10.13-.47.53-1.38,1.06-2.06.64h0Z"/><path class="cls-1" d="M134.43,242.85s-11.71-3.08-6.1-11.48c5.61-8.4,17.22,0,17.22,0,0,0,7.74,5.6-.58,10.27,0,0-3.97,3.17-10.55,1.21Z"/><path class="cls-1" d="M138.66,244c-1.29,0-2.75-.18-4.37-.66-.34-.09-6.1-1.68-7.62-5.69-.75-1.98-.33-4.19,1.25-6.55,1.41-2.11,3.3-3.39,5.63-3.81,5.73-1.03,12.04,3.49,12.31,3.68.15.11,3.66,2.69,3.47,5.97-.11,1.95-1.49,3.68-4.1,5.14-.08.07-2.45,1.92-6.56,1.92ZM135.28,228.14c-.53,0-1.05.04-1.57.13-2.05.37-3.72,1.5-4.97,3.38-1.39,2.08-1.77,3.97-1.14,5.64,1.35,3.57,6.89,5.07,6.95,5.09h.01c6.26,1.87,10.06-1.09,10.09-1.12,2.36-1.33,3.57-2.79,3.66-4.37.16-2.73-3.03-5.08-3.06-5.11-.05-.04-5.1-3.64-9.98-3.64Z"/><path class="cls-2" d="M131.59,237.33s-1.96-1.6.94-2,2.97.68,2.97.68c0,0,1.16,1.08-.94,1.64s-2.97-.32-2.97-.32Z"/><path class="cls-1" d="M195.08,300.83c1.28-3.57,4.07-12,8.42-12.26-3.36.91-4.22,6.31-4.93,9.26-.23,1.2-.43,2.44-.55,3.61l-2.94-.6h0Z"/><path class="cls-1" d="M165.91,300.91c2.5-.51,9.7-1.68,9.96-4.73.31,2.17-2.14,3.58-3.64,4.69-1.76,1.14-3.55,2.07-5.48,2.92,0,0-.84-2.88-.84-2.88h0Z"/><path class="cls-4" d="M104.89,321.96s5.32-10.55,23.38-9.23l3.29,3.38-3.29,1.3,3.29,2.98-3.29,2.37,3.29,4.41s-16.02,2.44-23.35,1.71c0,0,1.23-5.38,5.79-6.58.18-.05.16-.3-.02-.31l-9.09-.04Z"/><path class="cls-1" d="M111.49,330.52c-1.26,0-2.42-.04-3.43-.15l-1.69-.17.38-1.66c.04-.17.68-2.86,2.66-5.07l-6.95-.03,1.09-2.17c.24-.47,5.98-11.43,24.83-10.05l.57.04,5.26,5.41-3.14,1.24,2.88,2.6-3.56,2.57,3.88,5.19-2.47.38c-.57.09-12.32,1.86-20.3,1.86ZM110.32,327.5c5.62.15,14.3-.89,18.53-1.46l-2.69-3.6,3.02-2.18-3.71-3.35,3.45-1.36-1.32-1.36c-11.33-.69-17.18,3.56-19.73,6.28l6.23.03c.81.06,1.45.7,1.53,1.5.07.81-.45,1.55-1.24,1.75-2.14.56-3.4,2.37-4.07,3.75Z"/><path class="cls-4" d="M114.51,322s3.39-1.23,5.19-.69"/><path class="cls-1" d="M114,320.59c1.91-.11,3.99-.18,5.7.72-1.76.11-3.29,1.13-4.68,2.1,0,0-1.02-2.82-1.02-2.82h0Z"/></g></svg>