<?xml version="1.0" encoding="UTF-8"?><svg id="Layer_1" xmlns="http://www.w3.org/2000/svg" width="500" height="500" viewBox="0 0 500 500"><defs><style>.cls-1{fill:#ffd00d;}.cls-2{fill:#ec2224;}.cls-3{fill:#231f20;}.cls-4{fill:#f9c7cf;}.cls-5{fill:#ad1717;}.cls-6{fill:#80c461;}.cls-7{fill:#fcbf6c;}.cls-8{fill:#ffe5cf;}.cls-9{fill:#fde5d0;}</style></defs><g id="sandwich"><path class="cls-9" d="M91.87,280.3s-3.09,15.84,0,25.39c0,0,68.12,19.76,89.57,32.82,15.59,9.5,67.77,25.63,95.12,33.74,10.28,3.05,17.05,4.96,17.05,4.96,0,0,80.86-64.34,88.26-65.58,0,0,14.79-10.85,30.82-26.38,16.02-15.53,30.4-24.65,30.4-24.65,0,0,4.02-4.07,0-28.35l-351.22,48.05Z"/><path class="cls-3" d="M293.94,378.87l-.74-.21c-.07-.02-6.9-1.95-17.07-4.97-28.98-8.59-79.92-24.42-95.47-33.9-21.03-12.81-88.53-32.47-89.21-32.66l-.76-.22-.25-.76c-3.17-9.8-.17-25.47-.05-26.13l.21-1.05,353.72-48.39.24,1.44c3.95,23.83.35,28.88-.41,29.65l-.26.21c-.14.09-14.45,9.23-30.16,24.46-15.91,15.43-30.82,26.4-30.97,26.51l-.29.21-.35.06c-5.14.86-55.19,39.5-87.57,65.27l-.6.48ZM93.07,304.47c8.01,2.34,68.76,20.34,89.15,32.75,15.27,9.3,65.93,25.04,94.77,33.59,8.23,2.44,14.27,4.17,16.29,4.75,10.55-8.39,78.64-62.34,87.92-65.3,1.91-1.42,15.73-11.83,30.44-26.08,14.87-14.41,28.52-23.47,30.42-24.7.36-.63,2.88-5.85-.22-25.54l-348.68,47.7c-.59,3.52-2.24,15.13-.09,22.84Z"/><path class="cls-7" d="M92.91,304.97s-2.08-11.58,0-22.14c0,0,.44,3.34,22.89,7.4s36.8,10.32,36.8,10.32c0,0-2.02,1.01,15.93,6.51,17.95,5.5,27.93,6.73,30.51,7.85s-2.29-.58,22.21,5.95,30.29,10.43,30.29,10.43c0,0,13.35,6.73,26.36,10.1,0,0,13.13,2.02,22.66-2.58,9.54-4.6,22.77-13.8,22.77-13.8,0,0,13.91-11.05,28.1-24.49,14.19-13.44,29.11-21.36,29.11-21.36,0,0,23.17-11.89,26.96-16.54s34.54-26.1,34.54-26.1c0,0,3.03,19.3,0,23.17-3.03,3.88-11.08,5.86-32.22,26.36-21.14,20.5-28.51,24.38-28.51,24.38,0,0-3.96.69-26.96,18-23,17.31-52.63,40.57-52.63,40.57l-8.53,6.89-42.12-12.75-36.87-12.06s-32.99-12.32-33.77-14.73c0,0-15.76-8.44-32.47-13.61,0,0-17.11-6.62-36.87-12.58s-18.2-5.2-18.2-5.2Z"/><path class="cls-4" d="M77.59,262.39s4.41,24.1,32.13,32.65c0,0,18.92,6.74,27.99,15.81s32.39,7,32.39,7c0,0,37.06-3.11,37.57-4.92s-98.21-58.05-130.08-50.53Z"/><path class="cls-3" d="M164.28,319.55c-7.74,0-21.03-1.04-27.64-7.65-8.73-8.73-27.24-15.39-27.43-15.46-14.69-4.53-22.92-13.45-27.22-20.13-4.67-7.26-5.84-13.4-5.88-13.66l-.26-1.4,1.39-.33c16.83-3.97,50.67,9.18,76.09,20.9,27.21,12.55,52.84,27.25,55.29,29.83.62.64.61,1.26.49,1.67-.35,1.22-.6,2.11-20.26,4.22-9.24.99-18.54,1.78-18.63,1.79-.29.03-2.6.22-5.94.22ZM79.42,263.55c1.48,5.2,8.11,23.08,30.74,30.05.85.3,19.4,6.98,28.6,16.18,8.47,8.46,30.97,6.58,31.2,6.56,11.94-1,28.71-2.73,34.68-3.93-13.45-8.8-94.99-53.85-125.22-48.86Z"/><path class="cls-4" d="M337.48,287.47s22.21,10.33,45.22-7.36c0,0,16.43-11.55,29.07-13.71s24.43-22.39,24.43-22.39c0,0,18.88-32.04,17.69-33.51s-104.12,46.61-116.41,76.97Z"/><path class="cls-3" d="M353.41,291.96c-.7,0-1.37-.02-2.02-.04-8.63-.38-14.31-2.98-14.55-3.09l-1.29-.6.54-1.32c6.49-16.04,36.77-36.05,61.03-50.02,25.97-14.95,52.78-27.37,56.29-27.89.89-.13,1.38.24,1.65.57.8.99,1.37,1.71-8.26,18.98-4.53,8.12-9.26,16.15-9.31,16.23-.49.84-12.28,20.86-25.47,23.11-12.16,2.08-28.3,13.34-28.46,13.46-11.19,8.61-22.26,10.63-30.14,10.63ZM339.49,286.64c5.1,1.8,23.52,6.71,42.29-7.72.73-.52,16.91-11.8,29.73-14,11.82-2.02,23.27-21.47,23.38-21.67,6.08-10.32,14.36-25,16.83-30.57-14.96,5.89-98.84,46.4-112.24,73.96Z"/><path class="cls-3" d="M292.81,373.96s.13.09.14.13c0,0-.02,0-.02.02-.04-.02-.08.08-.08.06.33-.17.56-1.03.68-1.8.36-2.17.17-4.92,0-7.19-.22-2.46-.57-4.9-.92-7.35.72,2.37,1.44,4.76,2.03,7.17.55,2.9,2.97,11-1.44,11.91-1.48.22-3.62-.98-2.49-2.66.5-.66,1.44-.79,2.1-.29h0Z"/><path class="cls-3" d="M290.42,377.52c-.2,0-.4-.06-.58-.19-.45-.32-.55-.95-.23-1.39l4.36-6.1.35,6.63c.03.55-.4,1.02-.95,1.05-.57.03-1.02-.4-1.05-.95l-.05-.92-1.03,1.45c-.2.27-.5.42-.81.42Z"/><path class="cls-4" d="M212.64,315.21s23.57,33.18,45.22,33.19c2.42,0,4.82.5,6.96,1.63,15.09,7.97,36.87,7.36,44.9-1.87,4.94-5.68,17.2-17.93,28.22-21.67,8.21-2.78,12.96-11.5,16.65-19.35,3.61-7.68,7.49-16.28,7.29-17.28-.37-1.85-124.3,4.11-149.23,25.34Z"/><path class="cls-3" d="M288.01,357.11c-7.99,0-16.59-1.89-23.9-5.75-1.83-.97-3.93-1.46-6.26-1.46-9.38,0-20.07-5.73-31.77-17.02-8.6-8.3-14.43-16.46-14.67-16.8l-.8-1.12,1.05-.89c24.62-20.97,145.43-27.49,150.57-25.7.84.29,1.05.95,1.11,1.21.14.72.34,1.71-7.4,18.21-4.11,8.76-9.08,17.27-17.52,20.13-10.18,3.45-22.12,14.97-27.57,21.23-4.57,5.26-13.27,7.96-22.83,7.96ZM214.7,315.48c4.35,5.76,24.75,31.41,43.15,31.42,2.82,0,5.4.61,7.66,1.81,14.7,7.76,35.63,7.02,43.07-1.53,1.56-1.79,15.58-17.6,28.87-22.11,7.38-2.5,11.94-10.4,15.77-18.56,4.51-9.61,6.19-13.7,6.81-15.42-13.54-.63-119.98,5.32-145.33,24.39ZM360.38,289.91h0Z"/><path class="cls-1" d="M288.86,349.57c-.55-.2-56.03-20.47-110.49-41.36-111.51-42.77-110.38-46.16-109.55-48.64,2.61-7.82,15.9-12.58,16.46-12.78l.12-.04.13-.02c13.49-2.23,330.71-54.62,353.4-54.62.99,0,1.51.09,1.92.32,1.7.97,4.75,2.41,7.99,3.94,11.76,5.56,16.82,8.26,17.71,10.63.54,1.44.79,2.1-27.42,25-14.54,11.8-34.89,28.02-60.49,48.2-43.59,34.36-87.9,68.78-88.34,69.13l-.66.51-.78-.28Z"/><path class="cls-3" d="M438.94,193.61c.63,0,1.03.04,1.18.13,5.56,3.18,23.84,10.62,25.04,13.8,1.19,3.18-175.77,140.63-175.77,140.63,0,0-221.54-80.9-219.14-88.12,2.4-7.21,15.54-11.84,15.54-11.84,0,0,330.33-54.6,353.16-54.6M438.94,190.61c-22.81,0-340.15,52.4-353.65,54.64l-.26.04-.25.09c-1.49.52-14.6,5.35-17.39,13.72-1.08,3.24,2.13,5.46,10.23,9.49,5.58,2.78,13.88,6.49,24.67,11.03,18.11,7.62,43.52,17.71,75.53,29.99,54.48,20.89,109.96,41.17,110.51,41.37l1.56.57,1.31-1.02c.44-.34,44.75-34.77,88.35-69.13,25.61-20.19,45.97-36.41,60.51-48.22,8.65-7.02,15.32-12.54,19.82-16.41,7.65-6.58,8.94-7.94,8.06-10.28-1.06-2.84-5.55-5.35-18.47-11.46-3.21-1.52-6.24-2.95-7.89-3.89-.76-.43-1.61-.52-2.66-.52h0Z"/><path class="cls-2" d="M321.48,293.58s1.12,8.47,2.28,8.31,34.7,8.12,63.25-38.61c0,0,3.41-12.55.46-17.17s-65.99,47.47-65.99,47.47Z"/><path class="cls-3" d="M330.46,303.85c-2.06,0-4.11-.13-6.15-.4-.22-.03-.38-.05-.49-.06-1.89.11-2.5-2.33-3.1-5.3-.43-2.12-.71-4.23-.72-4.32l-.11-.82.64-.53c.15-.12,14.95-12.35,30.36-24.29,31.65-24.53,34.95-24,36.35-23.78.64.1,1.18.44,1.5.95,3.21,5.04.09,17.02-.28,18.37l-.06.21-.11.18c-11.34,18.56-24.8,30.83-39.99,36.48-5.92,2.2-11.9,3.31-17.84,3.31ZM324.43,300.45c.08,0,.17.02.26.03,31.48,4.08,53.02-24.91,60.93-37.8.88-3.34,2.53-11.78.82-15.34-5.37.89-36.15,24.41-63.36,46.86.37,2.5.92,5.21,1.34,6.24Z"/><path class="cls-5" d="M321.13,291.42l1.54,6.5c11.28-.79,30.22-3.21,64.37-41.54,0,0,3.13-6.51.42-9.59l-66.33,44.64Z"/><path class="cls-3" d="M321.5,299.5l-2.07-8.75,68.28-45.95.87.99c3.27,3.72.17,10.48-.2,11.23l-.09.19-.14.16c-31.28,35.12-49.91,40.96-65.38,42.04l-1.27.09ZM322.83,292.08l1,4.24c14.57-1.28,32.32-7.58,61.94-40.78.6-1.34,1.68-4.5,1.15-6.59l-64.09,43.13Z"/><path class="cls-2" d="M185.32,277.26s2.02,8.3.89,8.57-29.4,20.14-72.95-13.06c0,0-7.72-10.46-6.65-15.84,1.07-5.38,78.71,20.32,78.71,20.32Z"/><path class="cls-3" d="M161.99,293.48c-15.95,0-32.64-6.56-49.63-19.51l-.17-.13-.13-.17c-.83-1.13-8.08-11.16-6.92-17.02.12-.59.49-1.1,1.06-1.43,1.23-.72,4.11-2.4,42.5,8.99,18.69,5.54,36.92,11.57,37.1,11.63l.79.26.2.81c.02.09.52,2.15.89,4.28.52,2.99.8,5.51-.97,6.06-.1.05-.24.13-.43.23-7.03,3.84-14.91,5.86-23.41,5.99-.29,0-.58,0-.87,0ZM114.35,271.72c12.04,9.14,42.63,28.36,70.49,13.14.08-.05.16-.09.23-.13.02-1.11-.45-3.85-1.01-6.31-33.49-11.06-70.68-21.83-76.04-20.71-.29,3.94,4.3,11.21,6.33,14ZM185.86,284.38s0,0,0,0c0,0,0,0,0,0Z"/><path class="cls-5" d="M184.86,275.13l.92,6.61c-10.8,3.35-29.33,7.96-75.05-15.39,0,0-5.28-4.94-3.87-8.79l78,17.56Z"/><path class="cls-3" d="M168.45,285.96c-13.19,0-31-4.28-58.39-18.27l-.19-.1-.15-.14c-.61-.57-5.95-5.75-4.26-10.4l.45-1.24,80.3,18.08,1.24,8.9-1.22.38c-5.12,1.59-10.81,2.79-17.78,2.79ZM111.62,265.12c39.63,20.21,58.45,19.64,72.5,15.56l-.6-4.31-75.37-16.97c.27,2.14,2.42,4.69,3.46,5.72Z"/><path class="cls-2" d="M225.23,304.57s-3.73,7.69-2.68,8.19,24.48,25.89,74.06,2.64c0,0,9.76-8.59,9.85-14.08.09-5.48-81.23,3.25-81.23,3.25Z"/><path class="cls-3" d="M257.67,326.71c-4.81,0-9.44-.52-13.91-1.55-8.28-1.92-15.56-5.55-21.62-10.79-.16-.14-.29-.25-.37-.32-1.61-.91-.8-3.32.33-6.13.81-2.01,1.74-3.92,1.77-4l.36-.75.83-.09c.19-.02,19.28-2.06,38.72-3.54,39.92-3.03,42.39-.78,43.44.18.48.44.74,1.01.73,1.62-.1,5.97-9.31,14.25-10.36,15.18l-.16.14-.19.09c-14.12,6.62-27.38,9.95-39.57,9.95ZM223.9,311.92c.06.05.13.11.2.17,24.02,20.76,57.97,8.43,71.67,2.04,2.57-2.3,8.6-8.44,9.14-12.35-4.97-2.22-43.62.44-78.69,4.19-1.07,2.29-2.1,4.86-2.32,5.95ZM223.2,311.41s0,0,0,0c0,0,0,0,0,0Z"/><path class="cls-5" d="M226.13,302.58l-2.3,6.27c9.84,5.56,26.99,13.98,76.6.81,0,0,6.2-3.71,5.64-7.77l-79.95.7Z"/><path class="cls-3" d="M255.76,318.19c-15.37,0-24.89-3.65-32.67-8.04l-1.11-.63,3.09-8.44,82.3-.72.18,1.31c.67,4.9-5.64,8.83-6.36,9.26l-.18.11-.2.05c-19.27,5.11-33.74,7.09-45.05,7.09ZM225.68,308.16c12.87,6.96,31.15,11.49,74.15.1,1.24-.79,3.88-2.83,4.59-4.87l-77.25.67-1.5,4.09Z"/><path class="cls-2" d="M395.71,233.47s1.11,8.46,2.2,8.32,32.81,8.39,59.49-38.01c0,0,3.14-12.5.33-17.14-2.81-4.64-62.02,46.82-62.02,46.82Z"/><path class="cls-3" d="M404.6,243.8c-2.08,0-4.15-.15-6.21-.45-.19-.03-.34-.05-.44-.06-1.81.1-2.42-2.24-3.02-5.32-.42-2.12-.7-4.22-.71-4.31l-.11-.8.61-.53c.14-.12,14.01-12.17,28.47-23.95,29.75-24.23,32.93-23.72,34.29-23.51.66.1,1.19.45,1.52.99,3.05,5.03.18,16.94-.16,18.28l-.05.2-.1.18c-10.6,18.44-23.25,30.59-37.59,36.11-5.47,2.11-11,3.16-16.5,3.16ZM398.62,240.35c.06,0,.13.02.2.03,29.67,4.34,49.79-24.39,57.17-37.17.81-3.32,2.31-11.71.69-15.32-5.17,1.11-33.71,23.9-59.38,46.18.36,2.5.91,5.24,1.31,6.28Z"/><path class="cls-5" d="M395.37,231.31l1.49,6.5c10.64-.69,28.52-2.95,60.52-40.92,0,0,2.92-6.47.34-9.57l-62.35,44Z"/><path class="cls-3" d="M395.68,239.38l-2-8.72,64.31-45.38.89,1.07c3.08,3.71.21,10.4-.13,11.15l-.09.19-.14.16c-29.35,34.82-46.93,40.5-61.57,41.45l-1.27.08ZM397.05,231.95l.98,4.26c13.71-1.17,30.38-7.34,58.06-40.13.56-1.32,1.54-4.43,1.06-6.54l-60.1,42.41Z"/><path class="cls-6" d="M95.1,227.29s-7.12-2.6-18.38,8.16c-7.64,7.3-5.62,10.19-3.52,11.3.91.48,1.94.64,2.97.55,4.08-.35,20.05-1.3,28.94,4.1,5.57,3.39,5.77,11.25,10.62,12.87,4,1.34,12.63,3.38,14.88,6.95,3.5,5.53,10.41,12.83,21.41,9.43,26.89-8.32,36.41,5.15,36.41,5.15,0,0,12.61,6.96,17.28,14.51,5.58,9.02,10.21,11.17,10.21,11.17,0,0,2.57,2.98,20.52-1.34,0,0,18.6-3.62,28.64,3.29,10.03,6.91,28.34,4.3,28.34,4.3,18.96.02,43.94-14.47,50.85-34.51,5.69-16.49,15.52-20.04,21-20.66,4.27-.49,8.38-1.95,12.07-4.16,7.34-4.39,17.66-12.25,22.14-23.55,5.34-13.46,19.53-20.26,26.82-22.95,2.05-.76,4.18-1.23,6.36-1.38,4.12-.28,14.26-3,23.98-21.6,11.24-21.5-23.53-16.7-23.53-16.7l-145.16,120.78-192.88-65.7Z"/><path class="cls-3" d="M285.35,319.72c-6.37,0-15.07-.9-21.11-5.06-9.4-6.47-27.32-3.08-27.5-3.05-15.83,3.81-20.39,2.1-21.66,1.11-1.03-.56-5.5-3.31-10.64-11.63-4.41-7.12-16.6-13.92-16.73-13.98l-.3-.17-.2-.28c-.37-.5-9.35-12.43-34.75-4.58-12.2,3.78-19.73-4.68-23.12-10.06-1.58-2.49-7.91-4.42-11.69-5.58-.9-.27-1.71-.52-2.4-.75-3.03-1.01-4.51-3.86-5.95-6.6-1.27-2.44-2.59-4.96-4.98-6.41-8.63-5.24-24.87-4.16-28.04-3.89-1.37.11-2.68-.13-3.79-.72-1.53-.81-2.45-2.04-2.67-3.56-.38-2.7,1.54-6.02,5.85-10.15,11.59-11.08,19.33-8.7,19.91-8.5l192.07,65.43,144.84-120.51.42-.06c.82-.11,20.17-2.68,25.88,5.44,2.36,3.36,2.09,7.88-.82,13.45-10.13,19.38-21.01,22.12-25.21,22.4-1.99.13-3.99.57-5.94,1.29-7.52,2.78-20.89,9.34-25.95,22.1-4.58,11.54-14.91,19.57-22.76,24.28-3.94,2.36-8.33,3.87-12.67,4.37-5.04.58-14.31,3.89-19.75,19.66-7.21,20.92-33.25,35.49-52.17,35.52-.68.09-3.91.5-8.18.5ZM247.42,307.68c6.05,0,13.3.92,18.52,4.51,9.44,6.5,27.1,4.07,27.28,4.05h.21s.03-.01.04-.01c17.91,0,42.57-13.74,49.39-33.5,5.97-17.32,16.5-21.01,22.25-21.66,3.93-.45,7.89-1.82,11.47-3.96,7.46-4.47,17.25-12.06,21.52-22.81,5.49-13.84,19.71-20.85,27.7-23.8,2.23-.82,4.51-1.32,6.78-1.47,3.7-.25,13.33-2.77,22.75-20.8,2.35-4.49,2.69-7.96,1.03-10.33-3.77-5.36-17.2-4.92-22.6-4.25l-145.47,121.04-.8-.27-192.89-65.7c-.19-.06-6.65-1.92-16.85,7.83-4.79,4.57-5.06,6.81-4.95,7.56.03.2.11.81,1.1,1.32.61.32,1.35.45,2.14.38,4.68-.4,20.66-1.27,29.85,4.31,3.11,1.89,4.69,4.92,6.08,7.59,1.26,2.42,2.36,4.52,4.24,5.15.66.22,1.45.46,2.32.73,4.72,1.44,11.18,3.41,13.35,6.84,3.59,5.68,9.92,11.82,19.7,8.8,25.73-7.96,36.22,3.37,37.86,5.42,1.95,1.11,13.06,7.63,17.55,14.88,5.21,8.42,9.54,10.58,9.58,10.6l.28.14.12.13c.39.22,4.1,1.91,19.13-1.7.42-.08,5.27-1,11.32-1ZM217.03,310.47l.03.03s-.02-.02-.03-.03Z"/><path class="cls-9" d="M86.42,207.14s-3.09,15.84,0,25.39c0,0,68.12,19.76,89.57,32.82,15.59,9.5,67.77,25.63,95.12,33.74,10.28,3.05,17.05,4.96,17.05,4.96,0,0,80.86-64.34,88.26-65.58,0,0,14.79-10.85,30.82-26.38,16.02-15.53,30.4-24.65,30.4-24.65,0,0,4.02-4.07,0-28.35l-351.22,48.05Z"/><path class="cls-3" d="M288.49,305.7l-.74-.21c-.07-.02-6.9-1.95-17.07-4.97-28.98-8.59-79.91-24.42-95.47-33.9-21.03-12.81-88.53-32.47-89.21-32.66l-.76-.22-.25-.76c-3.17-9.8-.17-25.47-.05-26.13l.21-1.05,353.72-48.39.24,1.44c3.95,23.83.35,28.88-.41,29.65l-.26.21c-.14.09-14.45,9.23-30.16,24.46-15.91,15.42-30.82,26.4-30.97,26.51l-.29.21-.35.06c-5.15.86-55.19,39.5-87.57,65.27l-.6.48ZM87.62,231.31c8.01,2.34,68.76,20.34,89.15,32.75,15.27,9.3,65.93,25.04,94.77,33.59,8.23,2.44,14.27,4.17,16.29,4.75,10.55-8.39,78.64-62.34,87.92-65.3,1.91-1.42,15.73-11.83,30.44-26.08,14.87-14.41,28.52-23.47,30.42-24.7.36-.63,2.88-5.85-.22-25.54l-348.68,47.7c-.59,3.52-2.24,15.13-.09,22.83Z"/><path class="cls-8" d="M95.84,211.89s-19.05-6.03-2.97-15.22c3.3-1.88,7.07-2.77,10.86-2.7,8.56.15,27.51-.4,48.24-6.74,3.27-1,6.63-1.63,10.04-1.8,17.36-.88,73.13-4.14,99.25-10.93,31.15-8.09,104.39-8.48,104.39-8.48,0,0,40.08-3.85,57.04-10.02,7.17-2.61,11.03-2.25,13.1-.97,2.46,1.52,2.44,5.12.04,6.73-8,5.37-33.27,23.84-35.12,26.62-2.95,4.44-28.14,16.96-28.14,16.96,0,0-20.43,12.33-35.46,28.14-15.03,15.8-37.77,27.75-37.77,27.75,0,0-15.8,12.72-42.01,0s-62.83-21.2-62.83-21.2c0,0-41.95-9.82-45.48-13.49s-53.19-14.65-53.19-14.65Z"/><path class="cls-3" d="M279.94,268.37c-6.27,0-14.15-1.37-23.26-5.79-25.75-12.5-62.14-21-62.51-21.09-7.08-1.66-42.57-10.11-46.22-13.91-2.2-2.17-28.66-8.94-52.43-14.22l-.13-.03c-1.01-.32-9.85-3.27-10.44-8.8-.34-3.16,2.08-6.23,7.18-9.15,3.45-1.97,7.49-2.97,11.63-2.9,9.17.17,27.55-.49,47.77-6.67,3.49-1.07,6.99-1.7,10.41-1.87,16.63-.84,72.9-4.11,98.94-10.88,30.56-7.94,102.05-8.51,104.69-8.53,1.85-.18,40.34-4.02,56.61-9.93,6.59-2.39,11.43-2.68,14.41-.84,1.56.97,2.52,2.65,2.56,4.51.04,1.91-.88,3.68-2.46,4.74-8.82,5.92-33.12,23.81-34.7,26.2-3.07,4.61-25.78,16.01-28.66,17.44-1.14.69-20.74,12.77-35.1,27.86-14.46,15.21-36.23,27.01-38.04,27.98-.75.57-4.8,3.46-11.67,4.97-2.36.52-5.23.9-8.55.9ZM96.24,210.44c8.53,1.89,50.28,11.32,53.88,15.06,2.22,2.31,27.5,9.03,44.74,13.07.36.08,37.08,8.66,63.14,21.31,24.96,12.11,39.8.67,40.42.18l.24-.16c.23-.12,22.7-12.02,37.38-27.46,15-15.77,35.57-28.26,35.77-28.39l.11-.06c9.6-4.77,25.57-13.45,27.56-16.45,2.19-3.3,28.9-22.58,35.53-27.03.73-.49,1.15-1.31,1.14-2.19-.02-.85-.43-1.58-1.13-2.02-1.48-.92-4.73-1.47-11.8,1.11-16.94,6.16-55.77,9.95-57.41,10.1h-.14c-.73.01-73.4.48-104.02,8.44-26.32,6.84-82.85,10.13-99.55,10.97-3.17.16-6.43.75-9.68,1.74-20.61,6.3-39.37,6.97-48.7,6.8-3.63-.06-7.11.8-10.09,2.5-3.91,2.23-5.88,4.38-5.68,6.22.32,3.01,6.18,5.56,8.3,6.24Z"/><path class="cls-7" d="M87.5,231.57s-2.08-11.58,0-22.14c0,0,.44,3.34,22.89,7.4s36.8,10.32,36.8,10.32c0,0-2.02,1.01,15.93,6.51,17.95,5.5,27.93,6.73,30.51,7.85s-2.29-.58,22.21,5.95,30.29,10.43,30.29,10.43c0,0,13.35,6.73,26.36,10.1,0,0,13.13,2.02,22.66-2.58,9.54-4.6,22.77-13.8,22.77-13.8,0,0,13.91-11.05,28.1-24.49s29.11-21.36,29.11-21.36c0,0,23.17-11.89,26.96-16.54s34.54-26.1,34.54-26.1c0,0,3.03,19.3,0,23.17-3.03,3.88-11.08,5.86-32.22,26.36-21.14,20.5-28.51,24.38-28.51,24.38,0,0-3.96.69-26.96,18-23,17.31-52.63,40.57-52.63,40.57l-8.53,6.89-42.12-12.75-36.87-12.06s-32.99-12.32-33.77-14.73c0,0-15.76-8.44-32.47-13.61,0,0-17.11-6.62-36.87-12.58s-18.2-5.2-18.2-5.2Z"/><path class="cls-3" d="M287.7,301.76s.14.13.05.1c-.05-.04-.43.05-.46.13.72-.99.78-2.68.95-4.08.19-2.32.17-4.72.09-7.1-.16-4.78-.57-9.57-1.05-14.36.88,5.22,5.55,24.34,1.75,27.75-1.06.93-2.71.52-3.59-.46-1.27-1.51.94-3.44,2.26-1.97h0Z"/><path class="cls-3" d="M285.92,304.29c-.12,0-.24-.02-.35-.06-.52-.19-.78-.77-.59-1.29l3.94-10.52.3,10.85c.01.55-.42,1.01-.97,1.03h-.03c-.54,0-.98-.43-1-.97l-.02-.6-.35.92c-.15.4-.53.65-.94.65Z"/></g></svg>