<?xml version="1.0" encoding="UTF-8"?><svg id="Layer_1" xmlns="http://www.w3.org/2000/svg" width="500" height="500" viewBox="0 0 500 500"><defs><style>.cls-1{fill:#f2f6db;}.cls-2{fill:#231f20;}.cls-3{opacity:.68;}.cls-4{fill:#f3f6dc;}.cls-5{fill:#aca93f;}.cls-6{fill:#d6d4b0;}</style></defs><g id="sock"><path class="cls-6" d="M246.09,224.24c-18.58,57.14-57.42,87.95-57.42,87.95,0,0-72.27,42.8-87.73,73.46-5.8,11.5-32.28,33.58-6.56,82.44,0,0,6.93,23.99,59.65-3.48,52.73-27.47,59.27-35.46,72.2-44.18"/><path class="cls-2" d="M112.7,479.26c-4.69,0-8.23-.83-10.88-1.97-6.54-2.8-8.49-7.63-8.82-8.61-21.96-41.8-6.55-64.15,2.66-77.51,1.65-2.39,3.07-4.45,3.95-6.19,6.52-12.93,23.38-29.34,50.12-48.77,19.09-13.87,36.65-24.39,38.09-25.25,1.91-1.56,39.02-32.35,56.86-87.18l2.85.93c-18.51,56.91-57.53,88.35-57.92,88.66l-.17.12c-.72.43-72.07,42.93-87.15,72.85-.97,1.92-2.45,4.06-4.16,6.54-8.83,12.81-23.62,34.25-2.42,74.52l.11.28c.05.17,1.41,4.44,7.29,6.91,7.21,3.03,21.77,3.52,50.22-11.3,41.35-21.54,53.94-30.87,64.07-38.36,2.67-1.98,5.2-3.85,7.99-5.73l1.68,2.49c-2.74,1.85-5.24,3.69-7.88,5.65-10.21,7.56-22.91,16.96-64.47,38.61-19.54,10.18-32.94,13.32-42.03,13.32Z"/><path class="cls-6" d="M225.72,420.79s99.34-50.48,110.44-61.62,63.48-43.7,44.4-120.38c-19.08-76.68-14.57-89.53-14.57-89.53v-81.39s9.02-29.13-29.14-8.14c0,0-11.79-6.43-30.53,1.71,0,0-11.1-5.14-23.24,11.57,0,0-13.53-6.85-29.83,8.14,0,0-13.88-3.43-21.51,14.99l1.69,12.68,2.53,18.91s8.32,61.93,10.01,97.42"/><path class="cls-2" d="M226.39,422.13l-1.36-2.67c.99-.5,99.25-50.49,110.06-61.34,1.34-1.34,3.26-2.99,5.49-4.9,16.5-14.13,55.14-47.24,38.52-114.06-17.7-71.13-15.18-87.75-14.61-90.09v-81.42l.07-.22c.03-.09,2.71-9.01-1.47-12.41-2.68-2.18-9.28-2.91-25.51,6.02l-.72.4-.72-.39c-3.89-2.09-15.01-4.4-29.21,1.77l-.62.27-.61-.28c-.4-.18-10.21-4.31-21.4,11.09l-.75,1.03-1.14-.58c-.51-.25-12.86-6.14-28.14,7.91l-.59.55-.78-.19c-.51-.12-12.57-2.78-19.61,13.74l4.17,31.18c.08.62,8.35,62.4,10.02,97.55l-3,.14c-1.66-35.02-9.92-96.67-10-97.29l-4.28-31.99.15-.37c4.16-10.04,10.2-13.84,14.54-15.26,3.53-1.15,6.51-.96,7.89-.77,14.05-12.56,26.05-9.73,29.79-8.37,10.91-14.34,21.04-12.24,23.71-11.35,16.41-6.93,27.56-3.08,30.51-1.78,14.03-7.62,23.26-9.36,28.18-5.35,5.34,4.36,2.96,13.76,2.5,15.39v81.43l-.08.24c-.16.52-3.9,14.28,14.61,88.67,17.07,68.62-22.56,102.56-39.48,117.06-2.18,1.87-4.06,3.48-5.32,4.74-11.14,11.18-106.76,59.83-110.83,61.89Z"/><path class="cls-1" d="M112.67,372.48s-6.75,6.96-12.67,18.06c-.31.59-.66,1.14-1.06,1.64-2.81,3.58-15.15,20.48-13.8,39.33,1.52,21.25,9.14,33.46,9.14,33.46,0,0,7.65,19.21,33.88,8.25,0,0,5.96.8,50.64-24.27,0,0,12.5-80.47-66.12-76.47Z"/><g class="cls-3"><path class="cls-5" d="M85.01,431.59s3.07,45.53,26.64,45.09c11.29-.21,26.78-5.73,32.02-9.26,0,0,15.84-6.6,52.85-28.91,0,0-9.56-38.95-34.21-27.11,0,0-24.33,23.36-35.61,18-10.72-5.09-41.69,2.19-41.69,2.19Z"/></g><g class="cls-3"><path class="cls-5" d="M232.36,415.1s3.76-33.47,32.93-41.1c1.38-.36,2.71-.99,3.95-1.83,8.95-6.09,46.17-29.64,57.77-8.72,0,0-44.83,27.81-94.65,51.65Z"/></g><path class="cls-6" d="M245.89,224.19l4.05,28.77"/><polygon class="cls-2" points="247.38 223.98 249.95 252.96 244.41 224.4 247.38 223.98 247.38 223.98"/><path class="cls-6" d="M245.21,228.6s2.3,19.7-12.98,46.57"/><path class="cls-2" d="M246.7,228.43c.34,14.58-4.71,28.7-11.42,41.42-.98,1.79-2.04,3.55-3.05,5.32.9-1.83,1.84-3.64,2.71-5.48,2.53-5.5,4.7-11.32,6.26-17.16,1.95-7.7,3.28-15.84,2.52-23.75,0,0,2.98-.35,2.98-.35h0Z"/><path class="cls-6" d="M255.52,225.41s5.2,10.4-1.65,26.32"/><path class="cls-2" d="M255.66,225.35c2.23,4.08,2.91,8.84,2.82,13.45.09,4.7-1.2,9.48-4.46,12.99-.09.11-.28.03-.28-.11,0-1.22.19-2.35.36-3.45.71-5.44,2.78-10.62,2.34-16.2-.07-2.21-.38-4.44-1.05-6.57-.06-.16.19-.28.27-.12h0Z"/><path class="cls-6" d="M224.32,404.21s-9.73-1.85-18.76,12.14"/><path class="cls-2" d="M224.29,404.36c-4.73.12-9.1,2.84-12.14,6.32-1.98,2.13-4.01,4.09-6.47,5.76-.08.05-.18.03-.23-.05.96-6.34,7.06-10.46,12.85-12.13,1.99-.45,4.06-.68,6.04-.19.17.05.13.32-.06.29h0Z"/><path class="cls-6" d="M181.22,395.8s-3.76-15.47-21.66-27.31"/><path class="cls-2" d="M181.07,395.83c-2.1-5.46-5.43-10.4-9.29-14.75-3.01-3.15-6.31-5.97-9.26-9.17-1.02-1.06-2.09-2.08-3.05-3.31-.09-.11.03-.3.17-.24,8.89,2.93,14.6,10.98,18.73,18.93,1.29,2.72,2.41,5.52,3,8.47.03.17-.24.26-.29.07h0Z"/><path class="cls-2" d="M102.1,406.11c-2.31,3.71-3.21,8.11-3.56,12.4-.1,2.68.18,5.39-.04,8.07-.14,1.7-.17,3.31-.56,5.05-.02.09-.1.14-.19.12-3.77-6.08-2.13-13.87.42-20.12.97-2.07,2.1-4.08,3.71-5.71.13-.13.34.05.22.2h0Z"/><path class="cls-6" d="M244.45,150.49s7.74,16.02,6.88,45.97"/><path class="cls-2" d="M244.58,150.42c3.53,7.05,5.39,14.8,6.79,22.53,1.55,7.75,1.93,15.77.1,23.52,0,0-.3,0-.3,0-.41-1.96-.64-3.9-.85-5.84-.8-5.76-.9-11.56-1.33-17.35-.8-7.69-2.06-15.41-4.68-22.71,0,0,.27-.13.27-.13h0Z"/><path class="cls-6" d="M360.44,192.86s.06,9.78.15,26.13"/><path class="cls-2" d="M360.59,192.86c.47,4.35.85,8.7,1.13,13.06.54,4.43.62,8.76-.97,13.07,0,0-.3,0-.3,0-1.65-4.29-1.61-8.63-1.13-13.06.23-4.36.56-8.72.97-13.07,0,0,.3,0,.3,0h0Z"/><path class="cls-2" d="M360.27,202.03c.56,4.62-.82,9.59-4.2,12.96-2.49,2.93-6.75,3.9-10.38,2.81,0,0-.02-.3-.02-.3.93-.58,1.85-.92,2.71-1.32,2.04-1.05,4.03-1.94,5.93-3.19,3.42-2.47,5.17-6.8,5.66-10.95,0,0,.3-.01.3-.01h0Z"/><path class="cls-6" d="M316.81,318.01s-1.09-7.63,2.73-19.16"/><path class="cls-2" d="M316.66,318.03c-.78-3.24-.85-6.6-.62-9.91.14-1.65.07-3.38.69-4.95.58-1.57,1.38-3.08,2.66-4.37,0,0,.28.09.28.09.17.91.18,1.75.15,2.57,0,4.05-1.94,7.7-2.36,11.71-.28,1.58-.45,3.19-.51,4.8l-.3.04h0Z"/><path class="cls-6" d="M356.38,97.18s-4.44,17.54.29,46.77"/><path class="cls-2" d="M356.38,97.18c-.8,13.62-.32,27.24.18,40.86.05,1.96.16,3.92.11,5.91-4.37-14.43-5.36-32.42-.29-46.77h0Z"/><line class="cls-6" x1="184.53" y1="356.44" x2="164.72" y2="334.89"/><path class="cls-2" d="M184.42,356.55c-3.62-3.29-7.19-6.64-10.68-10.07-3.72-3.3-7.06-6.83-9.13-11.49,0,0,.22-.2.22-.2,4.47,2.45,7.71,6.08,10.68,10.07,3.12,3.77,6.16,7.6,9.13,11.49,0,0-.22.2-.22.2h0Z"/><path class="cls-2" d="M235.26,106.88c-.38,0-.75-.14-1.04-.42-.6-.58-.61-1.52-.04-2.12,1.24-1.29,12.33-12.51,20.23-10.84,6.87,1.45,25.94-5.21,27.68-7.16,2.3-3.07,16.75-16.15,25.11-10.76,5.34,3.44,23.06.52,29.99-1.01,1.8-1.69,10.3-8.64,26.31-5.76.82.15,1.36.93,1.21,1.74-.15.81-.93,1.35-1.74,1.21-16.19-2.91-23.86,5.12-23.93,5.2l-.31.34-.45.1c-2.56.58-25.19,5.53-32.69.7-5.81-3.74-18.54,6.64-21.1,10.05-2.32,3.09-23.27,9.84-30.69,8.28-5.33-1.12-14.4,6.83-17.45,9.99-.29.31-.69.46-1.08.46Z"/><path class="cls-2" d="M254.2,82.78c-1.2,3.89-.3,8.22,1.18,11.94.34,22.26,3.16,44.69,6.19,66.76,0,0,1.4,9.47,1.4,9.47,0,0-1.72-9.42-1.72-9.42-3.63-21.2-7.68-46.43-8.34-66.07-1.61-3.71-2.54-7.83-1.95-11.88.17-1.22.52-3.37,2.34-2.83.84.28,1.25,1.23.89,2.03h0Z"/><path class="cls-2" d="M284.14,73.16c-.56,4.68-.82,9.73.25,14.32,0,0-2.3.68-2.3.68.02,0-.1-.16.07.05.12.12.27.21.45.26.39.13.99-.08,1.16-.45-.01.01-.1.33-.13.59-.84,9.21-.21,18.54-.04,27.79.32,9.95.76,19.91,1.24,29.86-1.49-18.64-3.55-37.29-3.64-56.01.12-1.34-.14-4.46,2.05-4.07.59.12,1.03.89,1.13,1.26,0,0-2.3.68-2.3.68-.74-2.55-1-5.13-1.12-7.68-.09-2.58-.04-5.07.2-7.66,0,0,2.98.37,2.98.37h0Z"/><path class="cls-2" d="M307.86,62.66c.66,4.52.95,9.52-.13,13.83.86,1.75.96,3.66,1.19,5.53.57,6.55.44,13.04.3,19.57-.35,12.98-1.19,25.94-2.13,38.88.52-16.19,1.02-32.41.36-48.59-.2-4.01-.42-8.01-1.15-11.93-.19-1.12-.51-1.88-.92-2.77-.24-.73.04-1.63.14-2.33.1-.76.17-1.52.2-2.3.11-3.09-.21-6.3-.8-9.32l2.95-.57h0Z"/><path class="cls-2" d="M338.46,60.94c-.83,4.6-1.75,10.04.43,14.36,0,0-.57-.45-.57-.45.18.06.39.21.5.35.46.59.54,1.36.66,2.04.84,7.97.26,16.01,0,23.99-.39,8.47-.95,16.92-1.55,25.36.22-8.46.4-16.93.4-25.39-.1-7.95.14-17.24-1.22-24.47.1.11.28.24.43.28,0,0-.57-.45-.57-.45-2.88-4.94-2.17-10.83-1.45-16.23,0,0,2.94.61,2.94.61h0Z"/><path class="cls-2" d="M244.18,112.32c.64.17.98-.09,1.44-.31,1.4-.61,2.75-.47,4.23.31-.65,2.02-2.82,2.94-4.71,2-.65-.34-1.37-1.22-.97-2h0Z"/><path class="cls-2" d="M267.35,105.38c2.23.81,3.71,1.97,5.94,1.06.82-.31,1.56-.75,2.49-1.06-.18,5.88-8.18,5.74-8.43,0h0Z"/><path class="cls-2" d="M290.46,93.61c3.29.06,5.56,1.07,8.79,0-.42,4.9-7.7,4.21-8.79,0h0Z"/><path class="cls-2" d="M318.26,93.61c3.05-1.38,6.25-1.46,9.47-1.42,1.06-.03,2,.21,3.02-.32,0,1.33-1.48,2.17-2.54,2.63-3.28,1.21-6.96.98-9.95-.89h0Z"/><path class="cls-2" d="M350.11,87.5c3.72-1.55,7.8-1.23,11.66-1.81.5-.1.98-.27,1.46-.76.19.67-.17,1.43-.63,1.97-3.21,3.1-8.86,2.76-12.49.59h0Z"/><path class="cls-2" d="M180.59,340.89c-2.01,1.91-3.6,4.25-4.7,6.75-.89,2.69-1.58,5.18-3.25,7.56,0,0-.3-.02-.3-.02-1.46-2.98-.54-6.28,1.45-8.71,1.66-2.46,3.96-4.55,6.63-5.84,0,0,.16.25.16.25h0Z"/><path class="cls-6" d="M171.85,337.25s-1.88.6-5.49,9.3"/><path class="cls-2" d="M171.89,337.39c-1.07,1.31-1.56,3.19-2.19,4.77-.3.84-.33,1.8-.9,2.52-.62.82-1.3,1.47-2.32,1.93,0,0-.28-.12-.28-.12-.76-2.23-.07-3.88,1.37-5.45,1.16-1.51,2.36-3.21,4.22-3.93,0,0,.09.29.09.29h0Z"/><line class="cls-6" x1="319.36" y1="160.88" x2="302.59" y2="186.07"/><path class="cls-2" d="M319.49,160.97c-2.42,4.44-4.92,8.83-7.51,13.17-2.41,4.53-5.14,8.76-9.26,12.01,0,0-.25-.17-.25-.17,1.41-5.06,4.26-9.2,7.51-13.17,3.01-4.06,6.1-8.06,9.26-12.01,0,0,.25.17.25.17h0Z"/><path class="cls-2" d="M306.94,166.31c1.5,2.11,3.34,4.01,5.4,5.5,2.34,1.28,4.1,2.12,6.42,3.81,0,0-.01.3-.01.3-.68.34-1.46.61-2.2.59-2.33.25-4.38-1.23-5.78-2.9-1.93-2.05-3.31-4.52-4.1-7.19,0,0,.27-.12.27-.12h0Z"/><path class="cls-6" d="M302.26,174.09s.79,3.32,10.89,9.36"/><path class="cls-2" d="M302.41,174.05c1.35,1.89,3.54,3.12,5.46,4.39,1.63.83,3.22,1.61,4.3,3.16.4.49.77,1.03,1.06,1.72,0,0-.15.26-.15.26-1.46.07-2.69-.3-3.83-.83-1.17-.51-1.95-1.57-2.85-2.42-1.75-1.78-3.65-3.71-4.27-6.21,0,0,.29-.07.29-.07h0Z"/><path class="cls-6" d="M331.25,268.47s.68-4.43,9.12-13.23c3.51-3.66,8.36-8.07,15.06-13.23"/><path class="cls-2" d="M331.1,268.44c1.46-6.03,5.82-10.85,9.77-15.43,4-4.7,8.69-8.73,14.47-11.12,0,0,.18.24.18.24-.93,1.26-1.95,2.4-2.99,3.51-3.01,3.39-6.55,6.14-9.97,9.07-4.25,4.05-8.88,8.28-11.17,13.78,0,0-.3-.05-.3-.05h0Z"/><path class="cls-6" d="M325.31,240.74s2.57-.08,8.48,5.04c2.45,2.13,5.49,5.15,9.15,9.46"/><path class="cls-2" d="M325.3,240.59c4.01.34,7.38,3.04,10.48,5.37,1.53,1.23,3.2,2.35,4.39,3.93,1.2,1.56,2.25,3.24,2.88,5.25,0,0-.23.19-.23.19-.95-.45-1.78-1-2.57-1.58-3.96-2.73-6.39-7.01-10.19-9.95-1.41-1.18-2.97-2.44-4.75-2.92,0,0,0-.3,0-.3h0Z"/><path class="cls-2" d="M332.22,361.79c-.08-.22-7.64-22.4-5.75-48.91,1.76-24.57,12.21-58.01,51.96-77.76l1.33,2.69c-30.86,15.33-47.79,40.63-50.29,75.19-1.88,25.91,5.5,47.59,5.58,47.81l-2.83.98Z"/><path class="cls-2" d="M182.08,450.43l-2.99-.28c2.63-28.17-3.02-49.22-16.77-62.55-19.75-19.15-49.88-15.65-50.18-15.61l-.37-2.98c1.29-.16,31.82-3.73,52.62,16.42,14.45,14,20.4,35.87,17.69,65Z"/><path class="cls-2" d="M159.27,447.18c-.45,5.52,1.45,10.96,3.68,15.96,1.67,3.78,4.11,7.71,6.43,11.16,0,0,2.54,3.5,2.54,3.5l-2.84-3.27c-4.58-5.63-8.76-11.81-11.16-18.72-.85-2.51-1.51-5.1-1.64-7.76-.01-.41-.03-.76.02-1.29.07-.83.8-1.44,1.62-1.37.89.07,1.52.92,1.35,1.79h0Z"/><path class="cls-2" d="M148.1,456.34c-.34,3.51.06,7.21.62,10.72.61,3.64,1.54,7.22,2.67,10.74-1.61-3.36-3.02-6.82-4.13-10.39-1.1-3.69-2.01-7.37-2.15-11.27-.01-.83.65-1.51,1.48-1.53.92-.02,1.65.82,1.51,1.73h0Z"/><path class="cls-6" d="M131.59,351.02s.4-8.3-5.21-21.4"/><path class="cls-2" d="M130.09,350.95c.41-7.23-1.41-14.51-3.71-21.33,2.52,5,4.61,10.23,5.86,15.71.42,1.94.76,3.71.85,5.76.03.83-.62,1.53-1.45,1.56-.92.04-1.67-.79-1.54-1.7h0Z"/><path class="cls-2" d="M209.91,298.45c.37-7.53-1.38-15.13-3.61-22.31,0,0-1.06-3.13-1.06-3.13l1.41,2.99c2.72,6.09,4.92,12.47,5.92,19.1.03,1.5,1.29,4.78-1.13,5.03-.91.03-1.65-.78-1.53-1.69h0Z"/><path class="cls-6" d="M310.98,369.09s7.65,2.96,17.13,16.15"/><path class="cls-2" d="M311.52,367.69c7.18,4.02,12.18,10.81,16.59,17.55,0,0-1.92-2.27-1.92-2.27-4.48-4.92-9.54-9.92-15.75-12.49-2.04-.68-.9-3.68,1.08-2.8h0Z"/><path class="cls-2" d="M340.31,368.32c-7.08,2.31-14.87,1.22-21.98-.54-1.91-.49-1.23-3.36.7-2.93.07,0,2.62,1.02,2.75,1.06,5.88,2.05,12.28,3.57,18.52,2.41h0Z"/><path class="cls-2" d="M359.52,172.07c7.01-3.38,12.43-9.62,17.16-15.69,0,0-1.54,2.58-1.54,2.58-3.88,6.02-8.19,12-14.4,15.84-1.92.97-3.24-1.95-1.22-2.74h0Z"/><path class="cls-2" d="M362.28,178.55c7.16-2.57,14.97-1.72,22.22-.06,0,0-2.73-.22-2.73-.22-6.08-.27-12.63.13-18.1,2.94-1.84,1.11-3.36-1.77-1.39-2.66h0Z"/><path class="cls-6" d="M200.25,298.52s-5.94-3.9-17.93-3.06"/><path class="cls-2" d="M199.43,299.78c-4.28-2.87-9.7-3.86-14.8-4.23,0,0-2.31-.08-2.31-.08l2.3-.29c4.69-.46,9.52-.3,14.06,1.13,1.23.43,3.94,1.09,3.03,3.01-.43.83-1.55,1.07-2.28.47h0Z"/><path class="cls-4" d="M334.42,359.32s-28.59-85.89,44.74-121.6c0,0,27.03,68.49-44.74,121.6Z"/><path class="cls-2" d="M343.34,310.34s12.74,11.5,17.2,10.34"/><path class="cls-2" d="M350.02,303.72c1.01,3.9,1.65,7.88,1.76,11.94.19,3.15.07,6.53-2.02,9.12-.68.88-1.62,1.67-2.72,1.92l-.17-.25c1.01-1.8,1.22-3.48,1.51-5.31.74-3.68,1.39-7.58,1.36-11.43.08-1.97.04-3.95-.01-5.94l.3-.05h0Z"/><path class="cls-2" d="M356.12,308.43c.27,4.11.28,8.23-.08,12.35-.16,3.12-.52,6.57-2.52,9.14-.67.9-1.66,1.9-2.86,1.93,0,0-.1-.28-.1-.28,1.19-1.57,1.18-3.54,1.63-5.39.31-1.91,1.06-3.78,1.49-5.75.84-3.96,1.54-7.98,2.15-12,0,0,.3.01.3.01h0Z"/></g></svg>