<?xml version="1.0" encoding="UTF-8"?><svg id="Layer_1" xmlns="http://www.w3.org/2000/svg" width="500" height="500" viewBox="0 0 500 500"><defs><style>.cls-1{fill:#b31f3a;}.cls-2{fill:#8b1b3a;}.cls-3{fill:#231f20;}.cls-4{fill:#6a2c8b;}.cls-5{fill:#3a0c42;}.cls-6{fill:#8a1b38;}</style></defs><g id="wine"><rect class="cls-2" x="329.76" y="66.52" width="45.87" height="22.23" rx="5.96" ry="5.96" transform="translate(89.82 -169.98) rotate(30.87)"/><path class="cls-3" d="M360.79,97.17l-29.14-17.42c-3.53-2.11-4.69-6.7-2.57-10.23l5.29-8.85c2.11-3.53,6.7-4.69,10.23-2.57l29.14,17.42c3.53,2.11,4.69,6.7,2.58,10.23l-5.29,8.85c-2.11,3.53-6.7,4.69-10.23,2.57ZM343.05,60.67c-2.11-1.26-4.85-.57-6.12,1.54l-5.29,8.85c-1.26,2.11-.57,4.85,1.54,6.12l29.14,17.42c2.11,1.26,4.85.57,6.12-1.54l5.29-8.85c1.26-2.11.57-4.85-1.54-6.12l-29.14-17.42Z"/><path class="cls-2" d="M338.38,140.92l-34.87-21.1c-.38-.23-.5-.71-.27-1.09l25.04-41.88c.23-.38.72-.5,1.1-.27l34.87,21.1c.38.23.5.71.27,1.09l-25.04,41.88c-.23.38-.72.5-1.1.27Z"/><path class="cls-3" d="M337.62,142.21h-.01s-34.87-21.1-34.87-21.1c-1.08-.65-1.43-2.06-.78-3.14l25.04-41.88c.32-.53.82-.9,1.42-1.05.59-.15,1.21-.06,1.73.26h.01s34.87,21.1,34.87,21.1c1.08.65,1.43,2.06.78,3.14l-25.04,41.88c-.32.53-.82.9-1.42,1.05-.59.15-1.21.06-1.73-.26ZM339.16,139.64h0s0,0,0,0ZM304.89,118.9l33.67,20.37,24.32-40.67-33.67-20.37-24.32,40.67Z"/><path class="cls-5" d="M320.88,169.89s-8.83,12.49.36,28.2c9.2,15.71,7.44,26.51,7.44,26.51,0,0,1.42,4.37-7.63,19.52l-119.79,201.48c-26.85,10.64-74.52-22.52-87.93-35.72-5.49-5.4-13-16.17-13.08-24.68,0,0,110.57-184.95,119.63-200.09s13.58-15.96,13.58-15.96c0,0,8.68-6.66,26.87-6,18.19.66,25.02-13.03,25.02-13.03l17.5-29.27,34.75,21.03-16.72,28Z"/><path class="cls-3" d="M141.23,432.23c-13.32-7.96-24.29-16.69-28.95-21.28-5.39-5.31-13.45-16.54-13.53-25.73v-.42s119.84-200.46,119.84-200.46c8.01-13.4,12.68-16.04,14.2-16.56,1.58-1.11,10.52-6.75,27.6-6.13,16.95.62,23.36-11.68,23.62-12.2l.05-.1,18.27-30.56,37.32,22.59-17.51,29.33-.03.04c-.34.48-8.14,11.94.43,26.58,8.63,14.75,7.89,25.29,7.66,27.21.26,1.58.14,6.94-7.87,20.35l-120.04,201.92-.48.19c-16.99,6.73-41.25-3.21-60.58-14.76ZM101.76,385.61c.32,8.16,7.86,18.52,12.62,23.21,14.26,14.03,60.52,45,85.86,35.57l119.52-201.04c8.3-13.89,7.48-18.32,7.47-18.36l-.11-.35.08-.28c.02-.1,1.51-10.53-7.25-25.51-9.37-16-1.05-28.73-.33-29.77l15.93-26.68-32.18-19.48-16.7,27.93c-.58,1.13-7.85,14.48-26.38,13.8-17.35-.63-25.82,5.63-25.91,5.69l-.29.22-.36.07h0s-4.28,1.42-12.56,15.26l-119.41,199.72Z"/><path class="cls-6" d="M239.05,380.75c-31.85,5.67-94.79-41.65-100.9-58.94l61.33-102.41c6.11,17.29,69.05,64.61,100.9,58.94l-61.33,102.41Z"/><path class="cls-3" d="M184.36,365.03c-2.4-1.44-4.51-2.76-6.23-3.88-20.8-13.49-38.21-29.82-41.4-38.84l-.24-.67.36-.61,62.97-105.15,1.06,3.01c2.94,8.32,20.22,24.37,40.2,37.32,23.95,15.53,45.46,23.05,59.02,20.64l3.24-.58-63.37,105.82-.67.12c-17.31,3.08-41.1-8.92-54.96-17.2ZM139.81,321.96c3.56,8.48,20.48,24.05,39.95,36.68,23.57,15.28,44.76,22.81,58.36,20.75l59.39-99.17c-20.08,1.52-47-14.3-58.05-21.47-18.87-12.24-34.94-26.81-40.15-36.14l-59.5,99.36Z"/><path class="cls-3" d="M375.1,86.01c.83,12.41-31.05-11.27-34.93-13.8,5.56,3.29,11.18,6.5,16.93,9.39,4.24,2.04,8.61,4.26,13.19,5.15.71.14,1.83.14,2.01-.03-.04.04-.06.12-.08.08,0,.01-.02-.06,0,.05l2.88-.84h0Z"/><path class="cls-4" d="M306.14,248.54c-.69-.79-2.08-1.71-3.59-1.72-.99,0-2.52.84-3.21,2l-15.38,27.19c4.29,1.1,9.02,1.31,9.02,1.31l13.58-24.26c1.08-1.92.36-3.63-.41-4.52Z"/><path class="cls-1" d="M244.74,346.5c.45,1.17,2.53,2.58,4.58,1.72,1.35-.57,2.14-1.59,3.81-4.32l38.13-63.7c-5.44-.59-8.73-1.43-8.73-1.43l-36.62,60.89c-2.67,4.49-1.68,5.52-1.17,6.85Z"/><path class="cls-1" d="M351.24,95.48c-.53-.81-2.4-2.03-3.9-1.79-.98.16-1.45.69-2.37,2.18l-20.54,34.83,6.26,3.74,20.66-34.77c1.44-2.45.49-3.27-.11-4.19Z"/><path class="cls-4" d="M328.41,138.25l-14.13,22.41c-11.37,16.52-5.91,26.28-5.91,26.28,11.4,25.22,10.9,29.1,9.17,38.94.1,1.35-.67,2.92-1.49,3.48-1.24.85-2.92.9-3.93.65-1.15-.29-2.71-1.27-2.93-3.47,2.13-9.73,3.46-16.21-7.59-36.16,0,0-7.8-11.11,6.7-33.34l13.51-22.72,6.6,3.94Z"/></g></svg>